<?xml version="1.0" encoding="utf-8"?>
<!-- Generator: Adobe Illustrator 19.0.0, SVG Export Plug-In . SVG Version: 6.00 Build 0)  -->
<svg version="1.1" id="Layer_1" xmlns="http://www.w3.org/2000/svg" xmlns:xlink="http://www.w3.org/1999/xlink" x="0px" y="0px"
	 viewBox="0 0 150 150" style="enable-background:new 0 0 150 150;" xml:space="preserve">
<style type="text/css">
	.st0{fill:#D7C36B;}
</style>
<g id="XMLID_152_">
	<g id="XMLID_155_">
		<rect id="XMLID_693_" x="66.3" y="106.7" class="st0" width="47.6" height="3.9"/>
		<rect id="XMLID_384_" x="48.3" y="106.7" class="st0" width="14.5" height="3.9"/>
		<rect id="XMLID_379_" x="36.1" y="106.7" class="st0" width="9.2" height="3.9"/>
	</g>
	<path id="XMLID_187_" class="st0" d="M61.8,44.8l2.7,2.8c5.8-5.7,15.2-5.6,20.9,0.2l2.8-2.7C81,37.7,69.2,37.6,61.8,44.8z"/>
	
		<rect id="XMLID_179_" x="79.8" y="55.5" transform="matrix(1 5.138008e-003 -5.138008e-003 1 0.3154 -0.4163)" class="st0" width="2.7" height="11.5"/>
	
		<rect id="XMLID_176_" x="73.2" y="50.5" transform="matrix(1 5.138008e-003 -5.138008e-003 1 0.29 -0.3821)" class="st0" width="2.7" height="11.5"/>
	
		<rect id="XMLID_172_" x="66.9" y="57.7" transform="matrix(1 5.138008e-003 -5.138008e-003 1 0.3269 -0.3497)" class="st0" width="2.7" height="11.5"/>
	
		<rect id="XMLID_161_" x="79.8" y="82.9" transform="matrix(1 5.138008e-003 -5.138008e-003 1 0.4562 -0.416)" class="st0" width="2.7" height="11.5"/>
	
		<rect id="XMLID_159_" x="73.2" y="70.1" transform="matrix(1 5.138008e-003 -5.138008e-003 1 0.3904 -0.3819)" class="st0" width="2.7" height="11.5"/>
	
		<rect id="XMLID_157_" x="66.9" y="78.1" transform="matrix(1 5.138008e-003 -5.138008e-003 1 0.4318 -0.3495)" class="st0" width="2.7" height="11.5"/>
</g>
</svg>
