<?xml version="1.0" encoding="utf-8"?>
<!-- Generator: Adobe Illustrator 19.0.0, SVG Export Plug-In . SVG Version: 6.00 Build 0)  -->
<svg version="1.1" id="Layer_1" xmlns="http://www.w3.org/2000/svg" xmlns:xlink="http://www.w3.org/1999/xlink" x="0px" y="0px"
	 viewBox="0 0 150 150" style="enable-background:new 0 0 150 150;" xml:space="preserve">
<style type="text/css">
	.st0{fill:#D7C36B;}
</style>
<g id="XMLID_827_">
	<rect id="XMLID_155_" x="55.4" y="115.4" class="st0" width="39.2" height="3.9"/>
	<g id="XMLID_134_">
		<rect id="XMLID_161_" x="72.9" y="59.1" class="st0" width="3.9" height="56.3"/>
		<path id="XMLID_153_" class="st0" d="M72.1,35.2l-2.3,3.1c6.6,4.8,8,14.1,3.2,20.7l3.1,2.3C82.2,52.9,80.4,41.3,72.1,35.2z"/>
		<path id="XMLID_151_" class="st0" d="M70.1,56.9l2.3-3.1c-6.6-4.8-8-14.1-3.2-20.7L66,30.8C60,39.1,61.8,50.8,70.1,56.9z"/>
	</g>
	<g id="XMLID_157_">
		
			<rect id="XMLID_162_" x="64.4" y="63.9" transform="matrix(-0.9414 0.3374 -0.3374 -0.9414 159.7785 156.4128)" class="st0" width="3.9" height="56.3"/>
		<path id="XMLID_159_" class="st0" d="M46.1,44L45,47.8c7.8,2.3,12.3,10.5,10,18.4l3.7,1.1C61.7,57.3,56,47,46.1,44z"/>
		<path id="XMLID_158_" class="st0" d="M51.5,65.1l1.1-3.7c-7.8-2.3-12.3-10.5-10-18.4l-3.7-1.1C36,51.8,41.7,62.2,51.5,65.1z"/>
	</g>
	<g id="XMLID_621_">
		
			<rect id="XMLID_629_" x="81.8" y="63.9" transform="matrix(0.9414 0.3374 -0.3374 0.9414 35.9829 -22.8427)" class="st0" width="3.9" height="56.3"/>
		<path id="XMLID_627_" class="st0" d="M103.9,44l1.1,3.7c-7.8,2.3-12.3,10.5-10,18.4l-3.7,1.1C88.3,57.3,94,47,103.9,44z"/>
		<path id="XMLID_625_" class="st0" d="M98.5,65.1l-1.1-3.7c7.8-2.3,12.3-10.5,10-18.4l3.7-1.1C114,51.8,108.3,62.2,98.5,65.1z"/>
	</g>
</g>
</svg>
