<?xml version="1.0" encoding="utf-8"?>
<!-- Generator: Adobe Illustrator 19.0.0, SVG Export Plug-In . SVG Version: 6.00 Build 0)  -->
<svg version="1.1" id="Layer_1" xmlns="http://www.w3.org/2000/svg" xmlns:xlink="http://www.w3.org/1999/xlink" x="0px" y="0px"
	 viewBox="0 0 150 150" style="enable-background:new 0 0 150 150;" xml:space="preserve">
<style type="text/css">
	.st0{fill:#D7C36B;}
	.st1{fill:none;stroke:#D7C36B;stroke-width:3;stroke-miterlimit:10;}
</style>
<g id="XMLID_828_">
	<rect id="XMLID_179_" x="69" y="54.2" class="st0" width="3.9" height="56.3"/>
	<rect id="XMLID_172_" x="51.5" y="110.5" class="st0" width="39.2" height="3.9"/>
	<path id="XMLID_168_" class="st0" d="M54.2,35.6v3.9c8.2,0,14.8,6.6,14.8,14.8h3.9C72.9,44,64.6,35.6,54.2,35.6z"/>
	<rect id="XMLID_379_" x="110.5" y="44.9" class="st1" width="14.4" height="65.6"/>
	<path id="XMLID_164_" class="st1" d="M92.1,54.7c10.9-8,13.8,13.2,25.6-1.8"/>
	<path id="XMLID_176_" class="st1" d="M92.1,69.4c10.9-8,13.8,13.2,25.6-1.8"/>
	<path id="XMLID_177_" class="st1" d="M92.1,84.2c10.9-8,13.8,13.2,25.6-1.8"/>
	<path id="XMLID_375_" class="st1" d="M92.1,98.9c10.9-8,13.8,13.2,25.6-1.8"/>
	<g id="XMLID_837_">
		<path id="XMLID_841_" class="st0" d="M38.7,35.6v3.9c8.2,0,14.8,6.6,14.8,14.8h3.9C57.4,44,49.1,35.6,38.7,35.6z"/>
		
			<rect id="XMLID_840_" x="39.6" y="54.9" transform="matrix(0.7111 0.7031 -0.7031 0.7111 54.4778 -11.2508)" class="st0" width="2.7" height="11.5"/>
		
			<rect id="XMLID_839_" x="38.3" y="46.7" transform="matrix(0.7111 0.7031 -0.7031 0.7111 48.3398 -12.698)" class="st0" width="2.7" height="11.5"/>
		
			<rect id="XMLID_838_" x="28.7" y="47.5" transform="matrix(0.7111 0.7031 -0.7031 0.7111 46.1124 -5.7798)" class="st0" width="2.7" height="11.5"/>
	</g>
</g>
</svg>
