<?xml version="1.0" encoding="utf-8"?>
<!-- Generator: Adobe Illustrator 19.0.0, SVG Export Plug-In . SVG Version: 6.00 Build 0)  -->
<svg version="1.1" xmlns="http://www.w3.org/2000/svg" xmlns:xlink="http://www.w3.org/1999/xlink" x="0px" y="0px"
	 viewBox="0 0 150 150" style="enable-background:new 0 0 150 150;" xml:space="preserve">
<style type="text/css">
	.st0{display:none;}
	.st1{fill:#D7C36B;}
</style>
<g id="ruler" class="st0">
</g>
<g id="Layer_2">
	<g id="XMLID_18_">
		<path id="XMLID_93_" class="st1" d="M125.9,100.9c0,1.8-0.4,3.4-1.1,4.8c-0.7,1.5-1.6,2.7-2.8,3.8c-1.2,1.1-2.6,1.9-4.2,2.5
			c-1.6,0.6-3.3,0.9-5.1,0.9H90.7V66.1h22.6c1.6,0,3.1,0.4,4.4,1.1c1.3,0.7,2.4,1.6,3.4,2.7c0.9,1.1,1.6,2.4,2.1,3.8
			c0.5,1.4,0.8,2.9,0.8,4.3c0,2.4-0.6,4.5-1.8,6.5c-1.2,2-2.8,3.4-4.9,4.4c2.7,0.8,4.8,2.3,6.4,4.4C125.1,95.5,125.9,98,125.9,100.9
			z M95.3,70.2v17.3h16.1c1.1,0,2.2-0.2,3.2-0.7c1-0.5,1.8-1.1,2.5-1.9c0.7-0.8,1.3-1.7,1.6-2.7c0.4-1,0.6-2.1,0.6-3.3
			c0-1.2-0.2-2.3-0.6-3.4c-0.4-1.1-0.9-2-1.6-2.7c-0.7-0.8-1.5-1.4-2.4-1.8c-0.9-0.5-1.9-0.7-3-0.7H95.3z M121.3,100.1
			c0-1.1-0.2-2.3-0.6-3.3c-0.4-1.1-1-2-1.7-2.8c-0.7-0.8-1.6-1.5-2.6-2c-1-0.5-2.1-0.8-3.2-0.8H95.3v17.7h17.5
			c1.2,0,2.3-0.2,3.3-0.7c1-0.5,1.9-1.1,2.7-1.9c0.8-0.8,1.4-1.8,1.8-2.8C121,102.4,121.3,101.2,121.3,100.1z"/>
		<rect id="XMLID_51_" x="68.5" y="55.9" class="st1" width="3.9" height="57"/>
		<rect id="XMLID_35_" x="61" y="87.4" class="st1" width="34.2" height="3.8"/>
		<path id="XMLID_33_" class="st1" d="M53.5,37V41c8.3,0,15,6.7,15,15h3.9C72.4,45.5,63.9,37,53.5,37z"/>
		<path id="XMLID_30_" class="st1" d="M37.8,37V41c8.3,0,15,6.7,15,15h3.9C56.7,45.5,48.2,37,37.8,37z"/>
		
			<rect id="XMLID_25_" x="38.8" y="56.9" transform="matrix(0.7111 0.7031 -0.7031 0.7111 55.6634 -10.1384)" class="st1" width="2.8" height="11.6"/>
		
			<rect id="XMLID_24_" x="37.5" y="48.6" transform="matrix(0.7111 0.7031 -0.7031 0.7111 49.4458 -11.6044)" class="st1" width="2.8" height="11.6"/>
		
			<rect id="XMLID_23_" x="27.8" y="49.3" transform="matrix(0.7111 0.7031 -0.7031 0.7111 47.1895 -4.5964)" class="st1" width="2.8" height="11.6"/>
	</g>
</g>
</svg>
