<?xml version="1.0" encoding="utf-8"?>
<!-- Generator: Adobe Illustrator 19.0.0, SVG Export Plug-In . SVG Version: 6.00 Build 0)  -->
<svg version="1.1" id="Layer_1" xmlns="http://www.w3.org/2000/svg" xmlns:xlink="http://www.w3.org/1999/xlink" x="0px" y="0px"
	 viewBox="0 0 180 150" style="enable-background:new 0 0 180 150;" xml:space="preserve">
<style type="text/css">
	.st0{fill:#D7C36B;}
</style>
<g id="XMLID_417_">
	<rect id="XMLID_250_" x="3.6" y="110.5" class="st0" width="39.2" height="3.9"/>
	<rect id="XMLID_3_" x="48.1" y="110.5" class="st0" width="14.1" height="3.9"/>
	<rect id="XMLID_4_" x="67.6" y="110.5" class="st0" width="14.1" height="3.9"/>
	<rect id="XMLID_162_" x="172.5" y="75.2" class="st0" width="3.9" height="39.2"/>
	<rect id="XMLID_180_" x="97" y="88.9" class="st0" width="3.9" height="25.5"/>
	<rect id="XMLID_161_" x="97" y="88.9" class="st0" width="75.5" height="3.9"/>
	<rect id="XMLID_171_" x="97" y="101.9" class="st0" width="75.5" height="3.9"/>
	<g id="XMLID_144_">
		<rect id="XMLID_159_" x="12.5" y="54.2" class="st0" width="3.9" height="56.3"/>
		<path id="XMLID_158_" class="st0" d="M31.1,35.6v3.9c-8.2,0-14.8,6.6-14.8,14.8h-3.9C12.5,44,20.8,35.6,31.1,35.6z"/>
		<path id="XMLID_157_" class="st0" d="M46.6,35.6v3.9c-8.2,0-14.8,6.6-14.8,14.8h-3.9C27.9,44,36.3,35.6,46.6,35.6z"/>
		
			<rect id="XMLID_155_" x="42.9" y="55.2" transform="matrix(-0.7111 0.7031 -0.7031 -0.7111 118.5142 73.0715)" class="st0" width="2.7" height="11.5"/>
		
			<rect id="XMLID_153_" x="44.2" y="47" transform="matrix(-0.7111 0.7031 -0.7031 -0.7111 114.9924 58.134)" class="st0" width="2.7" height="11.5"/>
		
			<rect id="XMLID_151_" x="53.7" y="47.7" transform="matrix(-0.7111 0.7031 -0.7031 -0.7111 131.8288 52.7132)" class="st0" width="2.7" height="11.5"/>
	</g>
	<path id="XMLID_213_" class="st0" d="M149.4,89.1l3.5,1.7c3.7-7.3,12.5-10.3,19.9-6.6l1.7-3.5C165.2,76.1,154,79.8,149.4,89.1z"/>
</g>
</svg>
