<?xml version="1.0" encoding="utf-8"?>
<!-- Generator: Adobe Illustrator 19.0.0, SVG Export Plug-In . SVG Version: 6.00 Build 0)  -->
<svg version="1.1" id="Layer_1" xmlns="http://www.w3.org/2000/svg" xmlns:xlink="http://www.w3.org/1999/xlink" x="0px" y="0px"
	 viewBox="0 0 150 150" style="enable-background:new 0 0 150 150;" xml:space="preserve">
<style type="text/css">
	.st0{fill:#D7C36B;}
</style>
<path id="XMLID_206_" class="st0" d="M126.2,26.5c-1.4,8.6-2.8,17-4.2,25.4c-3.1,18.7-6.3,37.4-9.4,56.1c-0.7,4.3-1.5,4.8-5.6,3.5
	c-5.7-1.9-11.5-3.6-17-5.8c-2.9-1.1-4.5-0.5-6.3,2c-4,5.5-8.4,10.7-12.7,16c-3,3.7-4.5,3.4-6.2-1.1c-3.1-8.5-6.1-17.1-9.4-25.5
	c-0.7-1.7-2.5-3.4-4.2-4.1c-7.9-2.9-15.9-5.4-23.9-8.1c-1.4-0.5-2.5-1.7-3.7-2.6c1-1.1,1.7-2.7,2.9-3.4c31.5-18.1,63-36.1,94.5-54.1
	C124.5,23,126.2,23.6,126.2,26.5z M66.3,112.5c0.2-0.1,0.5-0.2,0.7-0.3c0.3-2.2,0.7-4.5,0.8-6.7c0.2-6.2,2.4-11.4,6.3-16.4
	c8.7-11,16.8-22.5,25.1-33.7c0.8-1,1.4-2.1,2.1-3.1C87.2,65.1,73.6,78.4,60.1,91.8c-0.5,0.5-0.7,1.7-0.4,2.4
	C61.8,100.3,64.1,106.4,66.3,112.5z"/>
</svg>
