<?xml version="1.0" encoding="utf-8"?>
<!-- Generator: Adobe Illustrator 19.0.0, SVG Export Plug-In . SVG Version: 6.00 Build 0)  -->
<svg version="1.1" xmlns="http://www.w3.org/2000/svg" xmlns:xlink="http://www.w3.org/1999/xlink" x="0px" y="0px"
	 viewBox="0 0 150 150" style="enable-background:new 0 0 150 150;" xml:space="preserve">
<style type="text/css">
	.st0{display:none;}
	.st1{fill:#FFFFFF;}
</style>
<g id="ruler" class="st0">
</g>
<g id="Layer_2">
	<path id="XMLID_726_" class="st1" d="M98.2,29.3c1.1,0.4,1.5,1.3,1.5,2.4c0,4.3,0,8.6,0,12.9c0,1.8-0.6,2.4-2.4,2.4
		c-3,0-6.1,0-9.1,0.1c-1.6,0.1-3.2,0.5-4,2.2c-0.4,0.8-0.7,1.7-0.7,2.5c-0.1,3.4,0,6.8,0,10.3c0.3,0,0.6,0,0.9,0c4.1,0,8.2,0,12.3,0
		c1.8,0,2.5,0.6,2.5,2.5c0,4.6,0,9.3,0,13.9c0,1.7-0.6,2.4-2.4,2.4c-4.1,0-8.2,0-12.3,0c-0.3,0-0.6,0-1.1,0c0,0.4,0,0.8,0,1.1
		c0,12,0,24,0,36c0,2.1-0.6,2.7-2.7,2.7c-4.7,0-9.4,0-14.1,0c-1.9,0-2.5-0.6-2.5-2.5c0-12,0-24.1,0-36.1c0-0.4,0-0.7,0-1.2
		c-0.4,0-0.7,0-1,0c-3.5,0-7,0-10.4,0c-1.7,0-2.3-0.6-2.3-2.3c0-4.7,0-9.4,0-14.1c0-1.7,0.7-2.3,2.3-2.3c3.5,0,6.9,0,10.4,0
		c0.3,0,0.6,0,1.1,0c0-0.4,0-0.7,0-1c0-3.7-0.1-7.4,0.1-11.1c0.2-5.2,1.8-10,5.4-14c3-3.3,6.8-5.3,11.1-6.2c1-0.2,2.1-0.4,3.1-0.6
		C88.6,29.3,93.4,29.3,98.2,29.3z"/>
</g>
</svg>
