<?xml version="1.0" encoding="utf-8"?>
<!-- Generator: Adobe Illustrator 19.0.0, SVG Export Plug-In . SVG Version: 6.00 Build 0)  -->
<svg version="1.1" xmlns="http://www.w3.org/2000/svg" xmlns:xlink="http://www.w3.org/1999/xlink" x="0px" y="0px"
	 viewBox="0 0 150 150" style="enable-background:new 0 0 150 150;" xml:space="preserve">
<style type="text/css">
	.st0{display:none;}
	.st1{fill:#FFFFFF;}
</style>
<g id="ruler" class="st0">
</g>
<g id="Layer_2">
	<g id="XMLID_737_">
		<path id="LinkedIn_1_" class="st1" d="M123.9,85.6v36.1h-20.9V88c0-8.5-3-14.2-10.6-14.2c-5.8,0-9.2,3.9-10.7,7.7
			c-0.6,1.3-0.7,3.2-0.7,5.1v35.2h-21c0,0,0.3-57.1,0-63h21v8.9c0,0.1-0.1,0.1-0.1,0.2h0.1v-0.2c2.8-4.3,7.8-10.4,18.9-10.4
			C113.5,57.2,123.9,66.2,123.9,85.6z M38,28.3c-7.2,0-11.9,4.7-11.9,10.9c0,6,4.6,10.9,11.6,10.9h0.1c7.3,0,11.9-4.8,11.9-10.9
			C49.6,33,45.2,28.3,38,28.3z M27.4,121.7h20.9v-63H27.4V121.7z"/>
	</g>
</g>
</svg>
