<?xml version="1.0" encoding="utf-8"?>
<!-- Generator: Adobe Illustrator 19.0.0, SVG Export Plug-In . SVG Version: 6.00 Build 0)  -->
<svg version="1.1" xmlns="http://www.w3.org/2000/svg" xmlns:xlink="http://www.w3.org/1999/xlink" x="0px" y="0px"
	 viewBox="0 0 150 150" style="enable-background:new 0 0 150 150;" xml:space="preserve">
<style type="text/css">
	.st0{display:none;}
	.st1{fill:#FFFFFF;}
</style>
<g id="ruler" class="st0">
</g>
<g id="Layer_2">
	<g id="XMLID_727_">
		<path id="XMLID_728_" class="st1" d="M49.4,132.8c-0.2-0.3-0.4-0.6-0.5-1c-1.2-7.8-2.2-15.6-0.8-23.4c0.8-4.8,2.2-9.6,3.4-14.4
			c1.7-7.1,3.5-14.2,5.3-21.3c0.1-0.6,0-1.3-0.2-1.9c-2.1-5.9-2.6-11.7-0.2-17.6c1.8-4.4,4.8-7.6,9.6-8.7c6.1-1.3,11.1,2.6,11.3,8.8
			c0.1,3.7-0.9,7.1-1.9,10.6c-1.3,4.4-2.8,8.7-4,13.1c-1.7,6.3,2.2,12.1,8.7,12.9c6.9,0.8,12.4-1.9,16.9-6.9
			c4.4-4.9,6.5-10.8,7.5-17.2c0.8-5.4,1.1-10.8-0.5-16.1c-3-10-9.9-16.3-19.9-18.9c-10.8-2.8-21.1-1.6-30.3,5
			c-8.8,6.3-13,15.1-12.4,26c0.3,5.1,2,9.9,5.2,13.9c0.6,0.7,0.8,1.5,0.5,2.4c-0.7,2.5-1.3,5.1-2,7.6c-0.4,1.3-1,1.6-2.3,1.1
			c-2.8-1.2-5.1-2.9-7-5.2c-6-7.2-8.7-15.6-8-25C29.3,39.3,40.9,24.1,61,19.1c3.4-0.8,7-1.1,10.4-1.7c0.3-0.1,0.7-0.1,1-0.2
			c2.6,0,5.1,0,7.7,0c0.3,0.1,0.6,0.2,0.9,0.2c5.3,0.4,10.4,1.6,15.3,3.6c11.7,5,20.1,13.1,23.9,25.4c3.1,9.8,2.2,19.6-1.5,29.1
			c-5.5,14.3-15.4,23.6-31.1,25.5c-8,1-15.2-0.9-20.7-7.5c-0.1,0.3-0.2,0.5-0.3,0.8c-0.8,3.1-1.8,6.1-2.5,9.2
			c-2.4,10.9-7.6,20.3-14,29.2C49.9,132.8,49.7,132.8,49.4,132.8z"/>
	</g>
</g>
</svg>
