<?xml version="1.0" encoding="utf-8"?>
<!-- Generator: Adobe Illustrator 19.0.0, SVG Export Plug-In . SVG Version: 6.00 Build 0)  -->
<svg version="1.1" id="Layer_1" xmlns="http://www.w3.org/2000/svg" xmlns:xlink="http://www.w3.org/1999/xlink" x="0px" y="0px"
	 viewBox="0 0 150 150" style="enable-background:new 0 0 150 150;" xml:space="preserve">
<style type="text/css">
	.st0{fill:#D7C36B;}
</style>
<g id="XMLID_103_">
	<rect id="XMLID_510_" x="83.8" y="54.2" class="st0" width="3.9" height="56.3"/>
	<rect id="XMLID_509_" x="66.3" y="110.5" class="st0" width="47.6" height="3.9"/>
	<rect id="XMLID_506_" x="48.3" y="110.5" class="st0" width="14.5" height="3.9"/>
	<rect id="XMLID_502_" x="36.1" y="110.5" class="st0" width="9.2" height="3.9"/>
	<path id="XMLID_491_" class="st0" d="M69,35.6v3.9c8.2,0,14.8,6.6,14.8,14.8h3.9C87.7,44,79.3,35.6,69,35.6z"/>
	<path id="XMLID_482_" class="st0" d="M53.5,35.6v3.9c8.2,0,14.8,6.6,14.8,14.8h3.9C72.2,44,63.8,35.6,53.5,35.6z"/>
	
		<rect id="XMLID_480_" x="54.5" y="55.2" transform="matrix(0.7111 0.7031 -0.7031 0.7111 58.9573 -21.7111)" class="st0" width="2.7" height="11.5"/>
	
		<rect id="XMLID_475_" x="53.2" y="47" transform="matrix(0.7111 0.7031 -0.7031 0.7111 52.8194 -23.1583)" class="st0" width="2.7" height="11.5"/>
	
		<rect id="XMLID_474_" x="43.7" y="47.7" transform="matrix(0.7111 0.7031 -0.7031 0.7111 50.592 -16.2401)" class="st0" width="2.7" height="11.5"/>
</g>
</svg>
