<?xml version="1.0" encoding="utf-8"?>
<!-- Generator: Adobe Illustrator 19.0.0, SVG Export Plug-In . SVG Version: 6.00 Build 0)  -->
<svg version="1.1" xmlns="http://www.w3.org/2000/svg" xmlns:xlink="http://www.w3.org/1999/xlink" x="0px" y="0px"
	 viewBox="0 0 150 150" style="enable-background:new 0 0 150 150;" xml:space="preserve">
<style type="text/css">
	.st0{display:none;}
</style>
<g id="ruler" class="st0">
</g>
<g id="Layer_2">
	<g id="XMLID_893_">
		<path id="XMLID_898_" d="M79.8,20.4c4.1,0.1,6,2.2,7.2,5.2c4.9,12.3,9.9,24.7,14.8,37c5.2,13.1,10.5,26.1,15.7,39.2
			c2.4,6,1.1,8.9-5,11.3c-12.6,5-25.2,10.1-37.8,15.2c-5.6,2.2-8.6,1-10.8-4.5C53.7,98.3,43.5,72.9,33.3,47.5
			c-2.2-5.4-0.9-8.5,4.4-10.6c13-5.2,25.9-10.4,38.9-15.6C77.9,20.8,79.1,20.6,79.8,20.4z M79.2,32.1c-1.6,0.6-2.5,0.9-3.4,1.3
			c-8.6,3.4-17.1,6.9-25.7,10.3c-9.1,3.7-7.8,2.2-4.5,10.4C52.7,72.1,60,90,67.1,108c0.8,2.1,1.8,3,4.2,2
			c10.4-4.3,20.8-8.4,31.2-12.5c2.4-0.9,2.9-2.2,1.9-4.6c-3.4-8.1-6.7-16.4-9.9-24.5c-4.4-11-8.8-22.1-13.3-33.1
			C80.7,34.1,79.9,33.2,79.2,32.1z M94.9,113.1c0.1-2.2-1.9-4.2-4.1-4.2c-2.3-0.1-4.2,1.6-4.3,3.9c-0.1,2.5,1.7,4.4,4.1,4.4
			C92.9,117.2,94.9,115.3,94.9,113.1z"/>
		<path id="XMLID_897_" d="M37.3,19.8c0.4,0.4,1.8,1.3,1.7,2c-0.1,0.9-1.3,2.2-2.3,2.4c-4.8,0.9-9.1,2.7-12.6,6.2
			c-4.8,4.7-7,10.4-6.7,17.2c0,1-1.2,2.1-1.9,3.2c-0.9-0.9-2.5-1.7-2.6-2.6C11.7,34.6,22,21.3,37.3,19.8z"/>
		<path id="XMLID_896_" d="M137.2,104.1c-0.5,12.7-8.2,22.7-19,25.7c-1.7,0.5-3.5,0.8-3.8-1.3c-0.1-0.9,1.3-2.5,2.4-2.9
			c11.5-4.2,17.2-13.5,15.3-25.6c-0.2-1.6-0.2-3.4,1.7-3.5c0.9,0,2.4,1.5,2.8,2.6C137.1,101,137.1,103.1,137.2,104.1z"/>
		<path id="XMLID_895_" d="M123.1,103.3c0-0.1,0-0.2,0-0.3c0.1-1.7-1.1-4.3,1.7-4.6c3.1-0.3,2.7,2.7,2.9,4.6
			c0.8,7.8-4.8,16.1-12.5,18.1c-1,0.3-3-0.2-3.4-1c-0.9-1.6,0.4-2.6,1.9-3.2C120.5,114,123.4,109.9,123.1,103.3z"/>
		<path id="XMLID_894_" d="M22.2,45.9C22.4,37.6,28.8,30.2,37,29c1.6-0.2,3.4-0.1,3.4,1.7c0,0.9-1.5,2.4-2.7,2.7
			c-7.2,2-10.7,6.1-11.1,13.5c-0.1,1.5-0.1,3.3-2.1,3.3c-2.2,0-2.4-1.7-2.3-3.4C22.2,46.5,22.2,46.2,22.2,45.9z"/>
	</g>
</g>
</svg>
