<?xml version="1.0" encoding="utf-8"?>
<!-- Generator: Adobe Illustrator 19.0.0, SVG Export Plug-In . SVG Version: 6.00 Build 0)  -->
<svg version="1.1" xmlns="http://www.w3.org/2000/svg" xmlns:xlink="http://www.w3.org/1999/xlink" x="0px" y="0px"
	 viewBox="0 0 150 150" style="enable-background:new 0 0 150 150;" xml:space="preserve">
<style type="text/css">
	.st0{display:none;}
	.st1{fill:#F4317B;}
</style>
<g id="ruler" class="st0">
</g>
<g id="Layer_2">
	<g id="XMLID_902_">
		<path id="XMLID_903_" class="st1" d="M74.9,125.9C60.8,108.7,47.1,91.6,41,70c-5.6-19.8,5.5-39.5,24.7-44.6
			c27.1-7.2,50.8,17.1,43.5,44.7c-2.7,10.2-7.5,19.5-13.4,28.1c-5.8,8.5-12.1,16.5-18.2,24.8C76.9,123.9,76,124.7,74.9,125.9z
			 M74.9,72.5C82,72.5,87.6,67,87.7,60c0.1-7.2-5.5-12.9-12.6-12.9c-7-0.1-12.6,5.5-12.8,12.5C62.2,66.7,67.8,72.4,74.9,72.5z"/>
	</g>
</g>
</svg>
