<?xml version="1.0" encoding="utf-8"?>
<!-- Generator: Adobe Illustrator 19.0.0, SVG Export Plug-In . SVG Version: 6.00 Build 0)  -->
<svg version="1.1" xmlns="http://www.w3.org/2000/svg" xmlns:xlink="http://www.w3.org/1999/xlink" x="0px" y="0px"
	 viewBox="0 0 150 150" style="enable-background:new 0 0 150 150;" xml:space="preserve">
<style type="text/css">
	.st0{display:none;}
	.st1{fill:#FFFFFF;}
</style>
<g id="ruler" class="st0">
</g>
<g id="Layer_2">
	<path id="XMLID_914_" class="st1" d="M130.3,22.7c-1.5,9.2-3,18.3-4.5,27.4c-3.4,20.2-6.8,40.3-10.1,60.5c-0.8,4.7-1.6,5.2-6,3.8
		c-6.2-2-12.4-3.9-18.4-6.2c-3.1-1.2-4.8-0.5-6.8,2.1c-4.4,5.9-9.1,11.6-13.7,17.3c-3.2,4-4.8,3.7-6.7-1.2
		c-3.4-9.2-6.6-18.4-10.2-27.5c-0.7-1.8-2.7-3.7-4.5-4.4c-8.5-3.1-17.2-5.8-25.7-8.8c-1.5-0.5-2.7-1.8-4-2.8c1-1.2,1.8-2.9,3.2-3.6
		c34-19.5,68-38.9,102-58.3C128.4,18.9,130.2,19.6,130.3,22.7z M65.6,115.5c0.3-0.1,0.5-0.2,0.8-0.3c0.3-2.4,0.8-4.8,0.9-7.3
		c0.2-6.7,2.6-12.3,6.8-17.7c9.3-11.9,18.1-24.2,27.1-36.4c0.8-1.1,1.5-2.2,2.3-3.4C88.2,64.3,73.5,78.7,58.9,93.1
		c-0.5,0.5-0.7,1.9-0.4,2.6C60.7,102.3,63.2,108.9,65.6,115.5z"/>
</g>
</svg>
