<?xml version="1.0" encoding="utf-8"?>
<!-- Generator: Adobe Illustrator 19.0.0, SVG Export Plug-In . SVG Version: 6.00 Build 0)  -->
<svg version="1.1" xmlns="http://www.w3.org/2000/svg" xmlns:xlink="http://www.w3.org/1999/xlink" x="0px" y="0px"
	 viewBox="0 0 150 150" style="enable-background:new 0 0 150 150;" xml:space="preserve">
<style type="text/css">
	.st0{display:none;}
	.st1{fill:#FFFFFF;}
</style>
<g id="ruler" class="st0">
</g>
<g id="Layer_2">
	<g id="XMLID_909_">
		<path id="XMLID_918_" class="st1" d="M119.7,119.5c0-1.6,0-3.1,0-4.6c0-13,0-25.9,0-38.9c0-2.4,0.7-4.2,3.2-4.7
			c2.9-0.6,4.8,1.3,4.8,4.9c0,9.6,0,19.2,0,28.8c0,5.9,0,11.7,0,17.6c0,3.8-1.4,5.2-5.2,5.2c-31.6,0-63.2,0-94.8,0
			c-4,0-5.4-1.4-5.4-5.4c0-31.5,0-63,0-94.5c0-4.1,1.3-5.5,5.3-5.5c15.4,0,30.7-0.1,46.1,0.1c1.6,0,3.9,1,4.8,2.3
			c1.7,2.5-0.5,5.5-3.9,5.6c-5.4,0.1-10.8,0-16.1,0c-9.2,0-18.4,0-27.9,0c0,29.7,0,59.4,0,89.2C60.1,119.5,89.6,119.5,119.7,119.5z"
			/>
		<path id="XMLID_912_" class="st1" d="M112.9,23c4.6-0.1,10.4,3.6,12.7,9.2c2.6,6.3,1.8,12.2-3,17.1c-7,7.3-14.2,14.3-21.4,21.4
			c-8.6,8.6-17.1,17.1-25.7,25.6c-1,1-2.2,1.9-3.5,2.4c-7.6,2.8-15.2,5.4-22.8,8c-1.9,0.7-3.8,1.1-5.4-0.5c-1.6-1.6-1.2-3.5-0.5-5.4
			c2.7-7.6,5.3-15.2,8-22.8c0.4-1.2,1.2-2.4,2.2-3.3c15.6-15.7,31.2-31.3,46.8-46.9C103.4,24.7,107.1,23.2,112.9,23z M53.1,96.9
			c8.6-3.2,16.6-5.2,22.9-12c12.8-13.8,26.4-26.8,39.8-40.1c2.1-2.1,3.6-4.3,3.1-7.4c-0.5-3-2.2-5-5.1-6c-3.2-1-5.8,0.1-8.1,2.4
			C90.4,49,75.2,64.2,60,79.4c-0.5,0.5-1.1,1.1-1.4,1.8C56.8,86.2,55.1,91.2,53.1,96.9z"/>
	</g>
</g>
</svg>
