<?xml version="1.0" encoding="utf-8"?>
<!-- Generator: Adobe Illustrator 19.0.0, SVG Export Plug-In . SVG Version: 6.00 Build 0)  -->
<svg version="1.1" xmlns="http://www.w3.org/2000/svg" xmlns:xlink="http://www.w3.org/1999/xlink" x="0px" y="0px"
	 viewBox="0 0 150 150" style="enable-background:new 0 0 150 150;" xml:space="preserve">
<style type="text/css">
	.st0{display:none;}
	.st1{fill:#D7C36B;}
</style>
<g id="ruler" class="st0">
</g>
<g id="Layer_2">
	<g id="XMLID_732_">
		<rect id="XMLID_742_" x="83.8" y="54.2" class="st1" width="3.9" height="56.3"/>
		<rect id="XMLID_741_" x="66.3" y="110.5" class="st1" width="47.6" height="3.9"/>
		<rect id="XMLID_740_" x="48.3" y="110.5" class="st1" width="14.5" height="3.9"/>
		<rect id="XMLID_739_" x="36.1" y="110.5" class="st1" width="9.2" height="3.9"/>
		<path id="XMLID_738_" class="st1" d="M69,35.6v3.9c8.2,0,14.8,6.6,14.8,14.8h3.9C87.7,44,79.3,35.6,69,35.6z"/>
		<g id="XMLID_733_">
			<path id="XMLID_737_" class="st1" d="M53.5,35.6v3.9c8.2,0,14.8,6.6,14.8,14.8h3.9C72.2,44,63.8,35.6,53.5,35.6z"/>
			
				<rect id="XMLID_736_" x="54.5" y="55.2" transform="matrix(0.7111 0.7031 -0.7031 0.7111 58.9573 -21.7111)" class="st1" width="2.7" height="11.5"/>
			
				<rect id="XMLID_735_" x="53.2" y="47" transform="matrix(0.7111 0.7031 -0.7031 0.7111 52.8193 -23.1582)" class="st1" width="2.7" height="11.5"/>
			
				<rect id="XMLID_734_" x="43.7" y="47.7" transform="matrix(0.7111 0.7031 -0.7031 0.7111 50.5919 -16.24)" class="st1" width="2.7" height="11.5"/>
		</g>
	</g>
</g>
</svg>
