<?xml version="1.0" encoding="utf-8"?>
<!-- Generator: Adobe Illustrator 19.0.0, SVG Export Plug-In . SVG Version: 6.00 Build 0)  -->
<svg version="1.1" id="Layer_1" xmlns="http://www.w3.org/2000/svg" xmlns:xlink="http://www.w3.org/1999/xlink" x="0px" y="0px"
	 viewBox="0 0 180 150" style="enable-background:new 0 0 180 150;" xml:space="preserve">
<style type="text/css">
	.st0{fill:#D7C36B;}
</style>
<g id="XMLID_857_">
	<g id="XMLID_17_">
		<g id="XMLID_109_">
			
				<rect id="XMLID_170_" x="163.1" y="48.8" transform="matrix(0.7071 -0.7071 0.7071 0.7071 2.3874 135.7017)" class="st0" width="3.9" height="32.2"/>
			
				<rect id="XMLID_377_" x="163.1" y="68.9" transform="matrix(-0.7071 -0.7071 0.7071 -0.7071 221.547 261.8298)" class="st0" width="3.9" height="32.2"/>
		</g>
		<g id="XMLID_384_">
			
				<rect id="XMLID_395_" x="13.1" y="68.9" transform="matrix(-0.7071 0.7071 -0.7071 -0.7071 85.7323 134.5505)" class="st0" width="3.9" height="32.2"/>
			
				<rect id="XMLID_392_" x="13.1" y="48.8" transform="matrix(0.7071 0.7071 -0.7071 0.7071 50.3334 8.4225)" class="st0" width="3.9" height="32.2"/>
		</g>
	</g>
	<g id="XMLID_22_">
		<rect id="XMLID_169_" x="68.6" y="87.6" class="st0" width="42.9" height="3.9"/>
		<rect id="XMLID_366_" x="51.8" y="64.2" class="st0" width="76.4" height="3.9"/>
		<rect id="XMLID_115_" x="66.6" y="87.6" class="st0" width="3.9" height="8.6"/>
		<rect id="XMLID_172_" x="49.9" y="64.2" class="st0" width="3.9" height="8.6"/>
		<rect id="XMLID_177_" x="126.2" y="64.2" class="st0" width="3.9" height="8.6"/>
		<rect id="XMLID_117_" x="109.5" y="87.6" class="st0" width="3.9" height="8.6"/>
		<rect id="XMLID_368_" x="88.1" y="59.3" class="st0" width="3.9" height="7.1"/>
		<path id="XMLID_166_" class="st0" d="M130.1,72.8h-3.9c0,8.2-6.6,14.8-14.8,14.8v3.9C121.8,91.4,130.1,83.1,130.1,72.8z"/>
		<path id="XMLID_165_" class="st0" d="M68.6,91.4v-3.9c-8.2,0-14.8-6.6-14.8-14.8h-3.9C49.9,83.1,58.2,91.4,68.6,91.4z"/>
	</g>
</g>
</svg>
