<?xml version="1.0" encoding="utf-8"?>
<!-- Generator: Adobe Illustrator 19.0.0, SVG Export Plug-In . SVG Version: 6.00 Build 0)  -->
<svg version="1.1" id="Layer_1" xmlns="http://www.w3.org/2000/svg" xmlns:xlink="http://www.w3.org/1999/xlink" x="0px" y="0px"
	 viewBox="0 0 150 150" style="enable-background:new 0 0 150 150;" xml:space="preserve">
<style type="text/css">
	.st0{fill:#D7C36B;}
</style>
<g id="XMLID_959_">
	<g id="XMLID_241_">
		<rect id="XMLID_527_" x="104.8" y="40.3" class="st0" width="3.9" height="62"/>
		<rect id="XMLID_242_" x="42.9" y="40.3" class="st0" width="3.9" height="62"/>
		<rect id="XMLID_417_" x="42.9" y="116.9" class="st0" width="3.9" height="19.4"/>
		<rect id="XMLID_418_" x="104.8" y="116.9" class="st0" width="3.9" height="19.4"/>
		<rect id="XMLID_413_" x="73.8" y="40.3" class="st0" width="3.9" height="62"/>
		<rect id="XMLID_507_" x="42.9" y="98.3" class="st0" width="65.7" height="3.9"/>
		<rect id="XMLID_415_" x="42.9" y="116.9" class="st0" width="65.7" height="3.9"/>
		<rect id="XMLID_416_" x="42.9" y="132.4" class="st0" width="65.7" height="3.9"/>
		<rect id="XMLID_411_" x="42.9" y="40.3" class="st0" width="65.7" height="3.9"/>
	</g>
	<g id="XMLID_419_">
		<rect id="XMLID_674_" x="123.3" y="55.6" class="st0" width="3.9" height="19.4"/>
		<rect id="XMLID_508_" x="115.6" y="63.3" class="st0" width="19.4" height="3.9"/>
	</g>
	<g id="XMLID_533_">
		<rect id="XMLID_553_" x="22.8" y="98.3" class="st0" width="3.9" height="19.4"/>
		<rect id="XMLID_552_" x="15.1" y="106.1" class="st0" width="19.4" height="3.9"/>
	</g>
	<g id="XMLID_554_">
		<rect id="XMLID_686_" x="68.6" y="13.7" class="st0" width="3.9" height="19.4"/>
		<rect id="XMLID_555_" x="60.9" y="21.5" class="st0" width="19.4" height="3.9"/>
	</g>
</g>
</svg>
