<?xml version="1.0" encoding="utf-8"?>
<!-- Generator: Adobe Illustrator 19.0.0, SVG Export Plug-In . SVG Version: 6.00 Build 0)  -->
<svg version="1.1" id="Layer_1" xmlns="http://www.w3.org/2000/svg" xmlns:xlink="http://www.w3.org/1999/xlink" x="0px" y="0px"
	 viewBox="0 0 200 150" style="enable-background:new 0 0 200 150;" xml:space="preserve">
<style type="text/css">
	.st0{fill:#D7C36B;}
	.st1{fill:none;stroke:#D7C36B;stroke-width:3.5;stroke-miterlimit:10;}
</style>
<g id="XMLID_599_">
	<g id="XMLID_1048_">
		<rect id="XMLID_1057_" x="160.7" y="54.2" class="st0" width="3.9" height="56.3"/>
		<rect id="XMLID_1056_" x="143.1" y="110.5" class="st0" width="47.6" height="3.9"/>
		<rect id="XMLID_1055_" x="125.2" y="110.5" class="st0" width="14.5" height="3.9"/>
		<rect id="XMLID_1054_" x="112.9" y="110.5" class="st0" width="9.2" height="3.9"/>
		<path id="XMLID_1053_" class="st0" d="M145.9,35.6v3.9c8.2,0,14.8,6.6,14.8,14.8h3.9C164.5,44,156.2,35.6,145.9,35.6z"/>
		<path id="XMLID_1052_" class="st0" d="M130.4,35.6v3.9c8.2,0,14.8,6.6,14.8,14.8h3.9C149,44,140.7,35.6,130.4,35.6z"/>
		
			<rect id="XMLID_1051_" x="131.4" y="55.2" transform="matrix(0.7111 0.7031 -0.7031 0.7111 81.1573 -75.7378)" class="st0" width="2.7" height="11.5"/>
		
			<rect id="XMLID_1050_" x="130.1" y="47" transform="matrix(0.7111 0.7031 -0.7031 0.7111 75.0193 -77.1849)" class="st0" width="2.7" height="11.5"/>
		
			<rect id="XMLID_1049_" x="120.5" y="47.7" transform="matrix(0.7111 0.7031 -0.7031 0.7111 72.7919 -70.2667)" class="st0" width="2.7" height="11.5"/>
	</g>
	<g id="XMLID_653_">
		<path id="XMLID_661_" class="st0" d="M34.4,53.6v3.9c-8.2,0-14.8,6.6-14.8,14.8h-3.9C15.8,62,24.1,53.6,34.4,53.6z"/>
		<rect id="XMLID_660_" x="81.1" y="106.5" class="st0" width="3.9" height="7.9"/>
		<rect id="XMLID_654_" x="13.2" y="106.5" class="st0" width="3.9" height="7.9"/>
		<rect id="XMLID_651_" x="9.3" y="62.5" class="st0" width="9.2" height="3.9"/>
		<path id="XMLID_652_" class="st1" d="M9.3,72.3l93.3,0c0,21.1-3.8,34.3-18,34.3H9.3V72.3z"/>
	</g>
</g>
</svg>
