<?xml version="1.0" encoding="utf-8"?>
<!-- Generator: Adobe Illustrator 19.0.0, SVG Export Plug-In . SVG Version: 6.00 Build 0)  -->
<svg version="1.1" id="Layer_1" xmlns="http://www.w3.org/2000/svg" xmlns:xlink="http://www.w3.org/1999/xlink" x="0px" y="0px"
	 viewBox="0 0 150 150" style="enable-background:new 0 0 150 150;" xml:space="preserve">
<style type="text/css">
	.st0{fill:#D7C36B;}
</style>
<g id="XMLID_829_">
	<rect id="XMLID_427_" x="84.5" y="54.2" class="st0" width="3.9" height="56.3"/>
	<rect id="XMLID_406_" x="66.9" y="110.5" class="st0" width="39.2" height="3.9"/>
	<path id="XMLID_405_" class="st0" d="M69.7,35.6v3.9c8.2,0,14.8,6.6,14.8,14.8h3.9C88.3,44,80,35.6,69.7,35.6z"/>
	<path id="XMLID_404_" class="st0" d="M55.3,35.6v3.9c8.2,0,14.8,6.6,14.8,14.8H74C74,44,65.6,35.6,55.3,35.6z"/>
	<path id="XMLID_424_" class="st0" d="M69.7,74.3v3.9c8.2,0,14.8,6.6,14.8,14.8h3.9C88.3,82.6,80,74.3,69.7,74.3z"/>
	<path id="XMLID_411_" class="st0" d="M82.5,93v-3.9c-8.2,0-14.8-6.6-14.8-14.8h-3.9C63.8,84.6,72.1,93,82.5,93z"/>
	<path id="XMLID_426_" class="st0" d="M103.3,47v3.9c-8.2,0-14.8,6.6-14.8,14.8h-3.9C84.6,55.4,93,47,103.3,47z"/>
	<path id="XMLID_425_" class="st0" d="M90.5,65.7v-3.9c8.2,0,14.8-6.6,14.8-14.8h3.9C109.2,57.3,100.8,65.7,90.5,65.7z"/>
	<g id="XMLID_417_">
		
			<rect id="XMLID_422_" x="55.6" y="55.3" transform="matrix(0.7111 0.7031 -0.7031 0.7111 59.4991 -22.4185)" class="st0" width="2.8" height="11.7"/>
		
			<rect id="XMLID_421_" x="54.3" y="46.9" transform="matrix(0.7111 0.7031 -0.7031 0.7111 53.2188 -23.8992)" class="st0" width="2.8" height="11.7"/>
		
			<rect id="XMLID_420_" x="44.5" y="47.7" transform="matrix(0.7111 0.7031 -0.7031 0.7111 50.9397 -16.8206)" class="st0" width="2.8" height="11.7"/>
	</g>
</g>
</svg>
