<?xml version="1.0" encoding="utf-8"?>
<!-- Generator: Adobe Illustrator 19.0.0, SVG Export Plug-In . SVG Version: 6.00 Build 0)  -->
<svg version="1.1" id="Layer_1" xmlns="http://www.w3.org/2000/svg" xmlns:xlink="http://www.w3.org/1999/xlink" x="0px" y="0px"
	 viewBox="0 0 150 150" style="enable-background:new 0 0 150 150;" xml:space="preserve">
<style type="text/css">
	.st0{fill:#D7C36B;}
</style>
<g id="XMLID_11_">
	<path id="XMLID_132_" class="st0" d="M45.9,18.3v3.9c8.2,0,14.8,6.6,14.8,14.8h3.9C64.6,26.7,56.3,18.3,45.9,18.3z"/>
	<rect id="XMLID_118_" x="7.2" y="34.9" class="st0" width="3.9" height="56.3"/>
	<rect id="XMLID_108_" x="37.4" y="91.2" class="st0" width="47.6" height="3.9"/>
	<rect id="XMLID_93_" x="7.2" y="34.9" class="st0" width="77.8" height="3.9"/>
	<rect id="XMLID_96_" x="7.2" y="54.6" class="st0" width="77.8" height="3.9"/>
	<rect id="XMLID_106_" x="19.4" y="91.2" class="st0" width="14.5" height="3.9"/>
	<rect id="XMLID_119_" x="38.9" y="44.5" class="st0" width="14.5" height="3.9"/>
	<rect id="XMLID_104_" x="7.2" y="91.2" class="st0" width="9.2" height="3.9"/>
	<rect id="XMLID_2042_" x="138.9" y="75.4" class="st0" width="3.9" height="56.3"/>
	<rect id="XMLID_2039_" x="65" y="71.5" class="st0" width="47.6" height="3.9"/>
	<rect id="XMLID_121_" x="65" y="127.8" class="st0" width="77.8" height="3.9"/>
	<rect id="XMLID_102_" x="65" y="108.1" class="st0" width="77.8" height="3.9"/>
	<rect id="XMLID_98_" x="116" y="71.5" class="st0" width="14.5" height="3.9"/>
	<rect id="XMLID_97_" x="133.5" y="71.5" class="st0" width="9.2" height="3.9"/>
</g>
</svg>
