<?xml version="1.0" encoding="utf-8"?>
<!-- Generator: Adobe Illustrator 19.0.0, SVG Export Plug-In . SVG Version: 6.00 Build 0)  -->
<svg version="1.1" id="Layer_1" xmlns="http://www.w3.org/2000/svg" xmlns:xlink="http://www.w3.org/1999/xlink" x="0px" y="0px"
	 viewBox="0 0 150 150" style="enable-background:new 0 0 150 150;" xml:space="preserve">
<style type="text/css">
	.st0{fill:#D7C36B;}
	.st1{fill:none;stroke:#D7C36B;stroke-width:3.5;stroke-miterlimit:10;}
</style>
<g id="XMLID_1_">
	<rect id="XMLID_1312_" x="11" y="64.1" class="st0" width="3.9" height="23.6"/>
	<rect id="XMLID_1291_" x="11" y="64.1" class="st0" width="128" height="3.9"/>
	<rect id="XMLID_1287_" x="11" y="83.8" class="st0" width="128" height="3.9"/>
	<rect id="XMLID_626_" x="135.1" y="64.1" class="st0" width="3.9" height="23.6"/>
	<rect id="XMLID_620_" x="131.2" y="87.7" class="st0" width="3.9" height="32.7"/>
	<rect id="XMLID_616_" x="14.9" y="87.7" class="st0" width="3.9" height="32.7"/>
	<g id="XMLID_1084_">
		<path id="XMLID_1313_" class="st0" d="M63.4,29.6v3.9c8.2,0,14.8,6.6,14.8,14.8h3.9C82.1,38,73.7,29.6,63.4,29.6z"/>
		<rect id="XMLID_607_" x="79.4" y="38.5" class="st0" width="9.2" height="3.9"/>
		<path id="XMLID_1091_" class="st1" d="M74.1,66c19.5,0,35.2-7.9,35.2-17.7H38.8C38.8,58.1,54.6,66,74.1,66z"/>
	</g>
</g>
</svg>
