<?xml version="1.0" encoding="utf-8"?>
<!-- Generator: Adobe Illustrator 19.0.0, SVG Export Plug-In . SVG Version: 6.00 Build 0)  -->
<svg version="1.1" id="Layer_1" xmlns="http://www.w3.org/2000/svg" xmlns:xlink="http://www.w3.org/1999/xlink" x="0px" y="0px"
	 viewBox="0 0 150 150" style="enable-background:new 0 0 150 150;" xml:space="preserve">
<style type="text/css">
	.st0{fill:#D7C36B;}
	.st1{fill:none;stroke:#D7C36B;stroke-width:3;stroke-miterlimit:10;}
</style>
<g id="XMLID_153_">
	<rect id="XMLID_170_" x="97.8" y="54.2" class="st0" width="3.9" height="56.3"/>
	<g id="XMLID_152_">
		<g id="XMLID_156_">
			
				<rect id="XMLID_158_" x="61.3" y="67" transform="matrix(-0.5403 0.8415 -0.8415 -0.5403 163.0497 67.0404)" class="st0" width="3.9" height="22.1"/>
			
				<rect id="XMLID_157_" x="45.6" y="63.4" transform="matrix(-0.5403 0.8415 -0.8415 -0.5403 130.4047 64.7266)" class="st0" width="3.9" height="9.2"/>
			
				<rect id="XMLID_134_" x="63.6" y="87.3" transform="matrix(0.5403 -0.8415 0.8415 0.5403 -49.8196 98.8257)" class="st0" width="3.9" height="15.3"/>
			
				<rect id="XMLID_131_" x="74.9" y="99.5" transform="matrix(0.5403 -0.8415 0.8415 0.5403 -50.7324 111.7044)" class="st0" width="3.9" height="5.6"/>
			<path id="XMLID_129_" class="st1" d="M33.1,47.9C24.8,60.2,38.5,72.4,43,65C47.3,57.9,33.6,58.7,33.1,47.9z"/>
			<path id="XMLID_128_" class="st1" d="M36.5,73.8l-2,3.1c-0.7,1-0.4,2.4,0.6,3.1l20.8,13.6c1,0.7,2.4,0.4,3.1-0.6l2-3.1
				c0.7-1,0.4-2.4-0.6-3.1L39.6,73.2C38.6,72.5,37.2,72.8,36.5,73.8z"/>
		</g>
		<rect id="XMLID_169_" x="80.3" y="110.5" class="st0" width="39.2" height="3.9"/>
		<path id="XMLID_166_" class="st0" d="M83,35.6v3.9c8.2,0,14.8,6.6,14.8,14.8h3.9C101.7,44,93.3,35.6,83,35.6z"/>
		<path id="XMLID_165_" class="st0" d="M67.5,35.6v3.9c8.2,0,14.8,6.6,14.8,14.8h3.9C86.2,44,77.8,35.6,67.5,35.6z"/>
		
			<rect id="XMLID_104_" x="68.5" y="54.9" transform="matrix(0.7111 0.7031 -0.7031 0.7111 62.8495 -31.6246)" class="st0" width="2.7" height="11.5"/>
		
			<rect id="XMLID_14_" x="67.2" y="46.7" transform="matrix(0.7111 0.7031 -0.7031 0.7111 56.7115 -33.0717)" class="st0" width="2.7" height="11.5"/>
		
			<rect id="XMLID_1_" x="57.7" y="47.5" transform="matrix(0.7111 0.7031 -0.7031 0.7111 54.4841 -26.1535)" class="st0" width="2.7" height="11.5"/>
	</g>
</g>
</svg>
