<?xml version="1.0" encoding="utf-8"?>
<!-- Generator: Adobe Illustrator 19.0.0, SVG Export Plug-In . SVG Version: 6.00 Build 0)  -->
<svg version="1.1" id="Layer_1" xmlns="http://www.w3.org/2000/svg" xmlns:xlink="http://www.w3.org/1999/xlink" x="0px" y="0px"
	 viewBox="0 0 150 150" style="enable-background:new 0 0 150 150;" xml:space="preserve">
<style type="text/css">
	.st0{fill:#D7C36B;}
</style>
<g id="XMLID_150_">
	<rect id="XMLID_181_" x="7.7" y="119.6" class="st0" width="134.7" height="3.9"/>
	
		<rect id="XMLID_148_" x="40.6" y="17" transform="matrix(0.8136 0.5814 -0.5814 0.8136 51.0546 -10.8853)" class="st0" width="3.9" height="114.5"/>
	
		<rect id="XMLID_173_" x="105.6" y="17" transform="matrix(-0.8136 0.5814 -0.5814 -0.8136 238.0874 72.0527)" class="st0" width="3.9" height="114.5"/>
	<rect id="XMLID_915_" x="89.7" y="79.2" class="st0" width="3.9" height="26.5"/>
	<rect id="XMLID_171_" x="89.7" y="108.8" class="st0" width="3.9" height="6.4"/>
	<rect id="XMLID_152_" x="74.2" y="26.5" class="st0" width="1.6" height="4.4"/>
	<path id="XMLID_914_" class="st0" d="M74.9,60.5v3.9c8.2,0,14.8,6.6,14.8,14.8h3.9C93.5,68.8,85.2,60.5,74.9,60.5z"/>
	<path id="XMLID_913_" class="st0" d="M59.4,60.5v3.9c8.2,0,14.8,6.6,14.8,14.8H78C78,68.8,69.7,60.5,59.4,60.5z"/>
	<g id="XMLID_908_">
		
			<rect id="XMLID_912_" x="61.8" y="77.8" transform="matrix(0.7111 0.7031 -0.7031 0.7111 76.1887 -20.389)" class="st0" width="2.2" height="9.4"/>
		
			<rect id="XMLID_911_" x="60.7" y="71.1" transform="matrix(0.7111 0.7031 -0.7031 0.7111 71.1498 -21.577)" class="st0" width="2.2" height="9.4"/>
		
			<rect id="XMLID_909_" x="52.9" y="71.7" transform="matrix(0.7111 0.7031 -0.7031 0.7111 69.3212 -15.8976)" class="st0" width="2.2" height="9.4"/>
	</g>
</g>
</svg>
