<?xml version="1.0" encoding="utf-8"?>
<!-- Generator: Adobe Illustrator 19.0.0, SVG Export Plug-In . SVG Version: 6.00 Build 0)  -->
<svg version="1.1" id="Layer_1" xmlns="http://www.w3.org/2000/svg" xmlns:xlink="http://www.w3.org/1999/xlink" x="0px" y="0px"
	 viewBox="0 0 230 150" style="enable-background:new 0 0 230 150;" xml:space="preserve">
<style type="text/css">
	.st0{fill:#D7C36B;}
	.st1{fill:none;stroke:#D7C36B;stroke-width:3;stroke-miterlimit:10;}
</style>
<g id="XMLID_958_">
	<g id="XMLID_412_">
		<rect id="XMLID_435_" x="83.1" y="101.2" class="st0" width="66.9" height="3.9"/>
		<rect id="XMLID_434_" x="123" y="44.9" class="st0" width="27" height="3.9"/>
		<rect id="XMLID_433_" x="146.1" y="94.5" class="st0" width="27" height="3.9"/>
		<rect id="XMLID_432_" x="146.1" y="81.3" class="st0" width="27" height="3.9"/>
		<rect id="XMLID_431_" x="123" y="44.9" class="st0" width="3.9" height="56.3"/>
		<rect id="XMLID_430_" x="146.1" y="44.9" class="st0" width="3.9" height="56.3"/>
		<rect id="XMLID_429_" x="83.1" y="44.9" class="st0" width="27" height="3.9"/>
		<rect id="XMLID_428_" x="83.1" y="44.9" class="st0" width="3.9" height="56.3"/>
		<rect id="XMLID_427_" x="63.8" y="46.8" class="st0" width="3.9" height="52.4"/>
		<rect id="XMLID_426_" x="70.9" y="67.5" class="st0" width="3.9" height="11"/>
		<rect id="XMLID_425_" x="106.3" y="44.9" class="st0" width="3.9" height="56.3"/>
		<rect id="XMLID_424_" x="169.3" y="81.3" class="st0" width="3.9" height="17.1"/>
		<rect id="XMLID_423_" x="146.1" y="75.8" class="st0" width="19.5" height="3.9"/>
		<rect id="XMLID_422_" x="146.1" y="62.5" class="st0" width="19.5" height="3.9"/>
		
			<rect id="XMLID_421_" x="74.4" y="40.5" transform="matrix(-0.1209 0.9927 -0.9927 -0.1209 135.1323 -19.8672)" class="st0" width="3.9" height="18.7"/>
		
			<rect id="XMLID_420_" x="74.4" y="86.9" transform="matrix(-0.1209 -0.9927 0.9927 -0.1209 -9.9233 183.6648)" class="st0" width="3.9" height="18.7"/>
		<rect id="XMLID_414_" x="161.8" y="62.5" class="st0" width="3.9" height="17.1"/>
	</g>
	<g id="XMLID_491_">
		<path id="XMLID_490_" class="st1" d="M23.6,81.7h18.6c0,0,7.5,0,8.2-6.1c0.4-4-1-7.1-4.8-7.4c-3.3-0.3-6.7,2.3-5.7,6
			c0.7,2.3,3.5,1.7,3.5,1.7"/>
		<path id="XMLID_452_" class="st1" d="M1.4,74h20c0,0,7.5,0,8.2-6.1c0.4-4-1-7.1-4.8-7.4c-3.3-0.3-6.7,2.3-5.7,6
			c0.7,2.3,3.5,1.7,3.5,1.7"/>
	</g>
	<g id="XMLID_493_">
		<path id="XMLID_495_" class="st1" d="M208.2,81.7h-19.5c0,0-7.5,0-8.2-6.1c-0.4-4,1-7.1,4.8-7.4c3.3-0.3,6.7,2.3,5.7,6
			c-0.7,2.3-3.5,1.7-3.5,1.7"/>
		<path id="XMLID_494_" class="st1" d="M228.6,74h-19.1c0,0-7.5,0-8.2-6.1c-0.4-4,1-7.1,4.8-7.4c3.3-0.3,6.7,2.3,5.7,6
			c-0.7,2.3-3.5,1.7-3.5,1.7"/>
	</g>
</g>
</svg>
