<?xml version="1.0" encoding="utf-8"?>
<!-- Generator: Adobe Illustrator 19.0.0, SVG Export Plug-In . SVG Version: 6.00 Build 0)  -->
<svg version="1.1" id="Layer_1" xmlns="http://www.w3.org/2000/svg" xmlns:xlink="http://www.w3.org/1999/xlink" x="0px" y="0px"
	 viewBox="0 0 150 150" style="enable-background:new 0 0 150 150;" xml:space="preserve">
<style type="text/css">
	.st0{fill:#D7C36B;}
</style>
<g id="XMLID_957_">
	<rect id="XMLID_169_" x="41.1" y="85.8" class="st0" width="66.9" height="3.9"/>
	<rect id="XMLID_219_" x="41.1" y="101.5" class="st0" width="66.9" height="3.9"/>
	<rect id="XMLID_227_" x="41.1" y="116.6" class="st0" width="66.9" height="3.9"/>
	<rect id="XMLID_3_" x="104.1" y="29.5" class="st0" width="3.9" height="90.9"/>
	<rect id="XMLID_15_" x="41.1" y="29.5" class="st0" width="66.9" height="3.9"/>
	<rect id="XMLID_14_" x="41.1" y="29.5" class="st0" width="3.9" height="90.9"/>
	<rect id="XMLID_17_" x="21.8" y="31.5" class="st0" width="3.9" height="52.4"/>
	<rect id="XMLID_22_" x="29" y="52.2" class="st0" width="3.9" height="11"/>
	<rect id="XMLID_228_" x="71.9" y="93.3" class="st0" width="6.9" height="3.9"/>
	<rect id="XMLID_229_" x="71.9" y="109" class="st0" width="6.9" height="3.9"/>
	<rect id="XMLID_12_" x="73.4" y="29.5" class="st0" width="3.9" height="56.3"/>
	
		<rect id="XMLID_18_" x="32.5" y="25.2" transform="matrix(-0.1209 0.9927 -0.9927 -0.1209 72.8101 4.5546)" class="st0" width="3.9" height="18.7"/>
	
		<rect id="XMLID_19_" x="32.5" y="71.5" transform="matrix(-0.1209 -0.9927 0.9927 -0.1209 -41.7019 124.7529)" class="st0" width="3.9" height="18.7"/>
	<rect id="XMLID_9_" x="124.3" y="31.5" class="st0" width="3.9" height="52.4"/>
	<rect id="XMLID_8_" x="117.2" y="52.2" class="st0" width="3.9" height="11"/>
	
		<rect id="XMLID_7_" x="113.7" y="71.5" transform="matrix(0.1209 -0.9927 0.9927 0.1209 21.3835 185.8296)" class="st0" width="3.9" height="18.7"/>
	
		<rect id="XMLID_6_" x="113.7" y="25.2" transform="matrix(0.1209 0.9927 -0.9927 0.1209 135.8954 -84.4203)" class="st0" width="3.9" height="18.7"/>
</g>
</svg>
