<?xml version="1.0" encoding="utf-8"?>
<!-- Generator: Adobe Illustrator 19.0.0, SVG Export Plug-In . SVG Version: 6.00 Build 0)  -->
<svg version="1.1" id="Layer_1" xmlns="http://www.w3.org/2000/svg" xmlns:xlink="http://www.w3.org/1999/xlink" x="0px" y="0px"
	 viewBox="0 0 150 150" style="enable-background:new 0 0 150 150;" xml:space="preserve">
<style type="text/css">
	.st0{fill:#D7C36B;}
	.st1{fill:none;stroke:#D7C36B;stroke-width:3;stroke-miterlimit:10;}
</style>
<g id="XMLID_826_">
	<g id="XMLID_109_">
		<rect id="XMLID_169_" x="42.2" y="110.5" class="st0" width="39.2" height="3.9"/>
		<rect id="XMLID_170_" x="59.7" y="54.2" class="st0" width="3.9" height="56.3"/>
		
			<rect id="XMLID_117_" x="112.1" y="71" transform="matrix(-0.6881 0.7256 -0.7256 -0.6881 253.0375 58.0464)" class="st0" width="3.9" height="24.8"/>
		<path id="XMLID_166_" class="st0" d="M44.9,35.6v3.9c8.2,0,14.8,6.6,14.8,14.8h3.9C63.6,44,55.3,35.6,44.9,35.6z"/>
		<path id="XMLID_165_" class="st0" d="M29.4,35.6v3.9c8.2,0,14.8,6.6,14.8,14.8h3.9C48.1,44,39.8,35.6,29.4,35.6z"/>
		<circle id="XMLID_410_" class="st1" cx="107.2" cy="75.1" r="27"/>
		<path id="XMLID_115_" class="st1" d="M107.2,54c13.4,0,27,14.7,18.3,32"/>
	</g>
	<g id="XMLID_439_">
		<path id="XMLID_414_" class="st0" d="M29.4,35.6v3.9c8.2,0,14.8,6.6,14.8,14.8h3.9C48.1,44,39.8,35.6,29.4,35.6z"/>
		
			<rect id="XMLID_413_" x="30.3" y="55" transform="matrix(0.7111 0.7031 -0.7031 0.7111 51.8086 -4.7036)" class="st0" width="2.7" height="11.5"/>
		
			<rect id="XMLID_412_" x="29" y="46.8" transform="matrix(0.7111 0.7031 -0.7031 0.7111 45.6706 -6.1508)" class="st0" width="2.7" height="11.5"/>
		
			<rect id="XMLID_409_" x="19.4" y="47.5" transform="matrix(0.7111 0.7031 -0.7031 0.7111 43.4432 0.7674)" class="st0" width="2.7" height="11.5"/>
	</g>
</g>
</svg>
