<?xml version="1.0" encoding="utf-8"?>
<!-- Generator: Adobe Illustrator 19.0.0, SVG Export Plug-In . SVG Version: 6.00 Build 0)  -->
<svg version="1.1" id="Layer_1" xmlns="http://www.w3.org/2000/svg" xmlns:xlink="http://www.w3.org/1999/xlink" x="0px" y="0px"
	 viewBox="0 0 150 150" style="enable-background:new 0 0 150 150;" xml:space="preserve">
<style type="text/css">
	.st0{fill:#D7C36B;}
	.st1{fill:none;stroke:#D7C36B;stroke-width:3.5;stroke-miterlimit:10;}
	.st2{fill:none;stroke:#D7C36B;stroke-width:3.5;stroke-miterlimit:10;stroke-dasharray:11.6071,11.6071;}
	.st3{fill:none;stroke:#D7C36B;stroke-width:3.5;stroke-miterlimit:10;stroke-dasharray:11.8743,11.8743;}
	.st4{fill:none;stroke:#D7C36B;stroke-width:3.5;stroke-miterlimit:10;stroke-dasharray:7.4222,7.4222;}
</style>
<g id="XMLID_18_">
	<path id="XMLID_460_" class="st0" d="M71.7,44.6v3.9c8.2,0,14.8,6.6,14.8,14.8h3.9C90.4,53,82.1,44.6,71.7,44.6z"/>
	<rect id="XMLID_459_" x="35.7" y="97.5" class="st0" width="3.9" height="7.9"/>
	<rect id="XMLID_414_" x="107.6" y="97.5" class="st0" width="3.9" height="7.9"/>
	<rect id="XMLID_399_" x="87.7" y="53.5" class="st0" width="9.2" height="3.9"/>
	<g id="XMLID_261_">
		<g id="XMLID_125_">
			<polyline id="XMLID_132_" class="st1" points="111.4,69.3 111.4,63.3 105.4,63.3 			"/>
			<line id="XMLID_131_" class="st2" x1="93.8" y1="63.3" x2="30" y2="63.3"/>
			<path id="XMLID_130_" class="st1" d="M24.2,63.3h-6c0,2.1,0,4.1,0.1,6"/>
			<path id="XMLID_129_" class="st3" d="M19.6,81.1c2.1,10.4,7,16.5,16.6,16.5h63.3"/>
			<polyline id="XMLID_128_" class="st1" points="105.4,97.5 111.4,97.5 111.4,91.5 			"/>
			<line id="XMLID_126_" class="st4" x1="111.4" y1="84.1" x2="111.4" y2="73"/>
		</g>
	</g>
	<rect id="XMLID_481_" x="113.1" y="61.5" class="st0" width="15.9" height="3.9"/>
	<rect id="XMLID_478_" x="127.9" y="61.5" class="st0" width="3.9" height="19.1"/>
	<path id="XMLID_473_" class="st0" d="M131.8,80.6h-3.9c0,8.2-6.6,14.8-14.8,14.8v3.9C123.5,99.3,131.8,90.9,131.8,80.6z"/>
</g>
</svg>
