<?xml version="1.0" encoding="utf-8"?>
<!-- Generator: Adobe Illustrator 19.0.0, SVG Export Plug-In . SVG Version: 6.00 Build 0)  -->
<svg version="1.1" id="Layer_1" xmlns="http://www.w3.org/2000/svg" xmlns:xlink="http://www.w3.org/1999/xlink" x="0px" y="0px"
	 viewBox="0 0 150 150" style="enable-background:new 0 0 150 150;" xml:space="preserve">
<style type="text/css">
	.st0{fill:#D7C36B;}
</style>
<g id="XMLID_109_">
	<rect id="XMLID_169_" x="67.6" y="118.6" class="st0" width="39.2" height="3.9"/>
	<rect id="XMLID_125_" x="41.3" y="27.5" class="st0" width="65.5" height="3.9"/>
	<rect id="XMLID_124_" x="39.3" y="27.5" class="st0" width="3.9" height="95"/>
	<rect id="XMLID_126_" x="106.8" y="27.5" class="st0" width="3.9" height="95"/>
	<g id="XMLID_402_">
		<rect id="XMLID_401_" x="92.1" y="62.3" class="st0" width="3.9" height="56.3"/>
		<path id="XMLID_400_" class="st0" d="M77.3,43.7v3.9c8.2,0,14.8,6.6,14.8,14.8H96C96,52,87.6,43.7,77.3,43.7z"/>
		<path id="XMLID_399_" class="st0" d="M61.8,43.7v3.9c8.2,0,14.8,6.6,14.8,14.8h3.9C80.5,52,72.1,43.7,61.8,43.7z"/>
		
			<rect id="XMLID_398_" x="62.8" y="63.2" transform="matrix(0.7111 0.7031 -0.7031 0.7111 67.0221 -25.1991)" class="st0" width="2.7" height="11.5"/>
		
			<rect id="XMLID_397_" x="61.5" y="55" transform="matrix(0.7111 0.7031 -0.7031 0.7111 60.8842 -26.6463)" class="st0" width="2.7" height="11.5"/>
		
			<rect id="XMLID_395_" x="52" y="55.8" transform="matrix(0.7111 0.7031 -0.7031 0.7111 58.6568 -19.7281)" class="st0" width="2.7" height="11.5"/>
	</g>
</g>
</svg>
