<?xml version="1.0" encoding="utf-8"?>
<!-- Generator: Adobe Illustrator 19.0.0, SVG Export Plug-In . SVG Version: 6.00 Build 0)  -->
<svg version="1.1" xmlns="http://www.w3.org/2000/svg" xmlns:xlink="http://www.w3.org/1999/xlink" x="0px" y="0px"
	 viewBox="0 0 150 150" style="enable-background:new 0 0 150 150;" xml:space="preserve">
<style type="text/css">
	.st0{display:none;}
	.st1{fill:#D7C36B;}
</style>
<g id="ruler" class="st0">
</g>
<g id="Layer_2">
	<g id="XMLID_139_">
		<rect id="XMLID_137_" x="95" y="46.8" class="st1" width="3.9" height="56.3"/>
		
			<rect id="XMLID_45_" x="68.1" y="98" transform="matrix(-0.706 -0.7082 0.7082 -0.706 42.6456 234.6273)" class="st1" width="3.9" height="20.8"/>
		<path id="XMLID_49_" class="st1" d="M80.2,28.2v3.9c8.2,0,14.8,6.6,14.8,14.8h3.9C98.9,36.5,90.5,28.2,80.2,28.2z"/>
		<path id="XMLID_48_" class="st1" d="M64.7,28.2v3.9c8.2,0,14.8,6.6,14.8,14.8h3.9C83.4,36.5,75.1,28.2,64.7,28.2z"/>
		<path id="XMLID_44_" class="st1" d="M80.2,121.8v-3.9c8.2,0,14.8-6.6,14.8-14.8h3.9C98.9,113.5,90.5,121.8,80.2,121.8z"/>
		<path id="XMLID_43_" class="st1" d="M64.7,121.8v-3.9c8.2,0,14.8-6.6,14.8-14.8h3.9C83.4,113.5,75.1,121.8,64.7,121.8z"/>
		
			<rect id="XMLID_4_" x="65.6" y="47.5" transform="matrix(0.7111 0.7031 -0.7031 0.7111 56.784 -31.668)" class="st1" width="2.7" height="11.5"/>
		
			<rect id="XMLID_14_" x="64.3" y="39.3" transform="matrix(0.7111 0.7031 -0.7031 0.7111 50.646 -33.1152)" class="st1" width="2.7" height="11.5"/>
		
			<rect id="XMLID_3_" x="54.7" y="40.1" transform="matrix(0.7111 0.7031 -0.7031 0.7111 48.4186 -26.197)" class="st1" width="2.7" height="11.5"/>
	</g>
</g>
</svg>
