<?xml version="1.0" encoding="utf-8"?>
<!-- Generator: Adobe Illustrator 19.0.0, SVG Export Plug-In . SVG Version: 6.00 Build 0)  -->
<svg version="1.1" id="Layer_1" xmlns="http://www.w3.org/2000/svg" xmlns:xlink="http://www.w3.org/1999/xlink" x="0px" y="0px"
	 viewBox="0 0 150 150" style="enable-background:new 0 0 150 150;" xml:space="preserve">
<style type="text/css">
	.st0{fill:#D7C36B;}
</style>
<g id="XMLID_1049_">
	<rect id="XMLID_181_" x="55.4" y="57.5" class="st0" width="39.2" height="3.9"/>
	<rect id="XMLID_171_" x="73.1" y="36.6" class="st0" width="3.9" height="23.9"/>
	<rect id="XMLID_152_" x="64.6" y="33.1" class="st0" width="12.4" height="3.9"/>
	<rect id="XMLID_177_" x="62.7" y="101.7" class="st0" width="7.6" height="3.9"/>
	<rect id="XMLID_233_" x="79.5" y="101.7" class="st0" width="7.6" height="3.9"/>
	<rect id="XMLID_178_" x="64.6" y="103.6" class="st0" width="3.9" height="9.6"/>
	<rect id="XMLID_236_" x="81.4" y="103.6" class="st0" width="3.9" height="9.6"/>
	<path id="XMLID_173_" class="st0" d="M58.1,38.8v3.9c8.2,0,14.8,6.6,14.8,14.8h3.9C76.8,47.2,68.4,38.8,58.1,38.8z"/>
	<rect id="XMLID_899_" x="55.4" y="113" class="st0" width="39.2" height="3.9"/>
	<rect id="XMLID_180_" x="73.1" y="98.4" class="st0" width="3.9" height="17.6"/>
	<path id="XMLID_154_" class="st0" d="M58.3,79.8v3.9c8.2,0,14.8,6.6,14.8,14.8h3.9C76.9,88.1,68.6,79.8,58.3,79.8z"/>
</g>
</svg>
