<?xml version="1.0" encoding="utf-8"?>
<!-- Generator: Adobe Illustrator 19.0.0, SVG Export Plug-In . SVG Version: 6.00 Build 0)  -->
<svg version="1.1" id="Layer_1" xmlns="http://www.w3.org/2000/svg" xmlns:xlink="http://www.w3.org/1999/xlink" x="0px" y="0px"
	 viewBox="0 0 150 150" style="enable-background:new 0 0 150 150;" xml:space="preserve">
<style type="text/css">
	.st0{fill:#D7C36B;}
</style>
<g id="XMLID_511_">
	<path id="XMLID_522_" class="st0" d="M110.9,78.4H107c0,8.2-6.6,14.8-14.8,14.8V97C102.5,97,110.9,88.7,110.9,78.4z"/>
	<path id="XMLID_520_" class="st0" d="M57.8,97v-3.9c-8.2,0-14.8-6.6-14.8-14.8h-3.9C39.1,88.7,47.5,97,57.8,97z"/>
	<rect id="XMLID_519_" x="39.1" y="74.6" class="st0" width="71.8" height="3.9"/>
	<rect id="XMLID_517_" x="39.1" y="93.2" class="st0" width="71.8" height="3.9"/>
	<rect id="XMLID_516_" x="78.4" y="57.7" class="st0" width="3.9" height="19.9"/>
	
		<rect id="XMLID_515_" x="84.4" y="64.2" transform="matrix(-0.8066 -0.5911 0.5911 -0.8066 114.4638 178.1978)" class="st0" width="3.9" height="12.4"/>
	<path id="XMLID_513_" class="st0" d="M84.9,54.3L81.2,53c-2.7,7.7-11.2,11.8-18.9,9.1l-1.3,3.7C70.8,69.1,81.5,64,84.9,54.3z"/>
</g>
</svg>
