<?xml version="1.0" encoding="utf-8"?>
<!-- Generator: Adobe Illustrator 19.0.0, SVG Export Plug-In . SVG Version: 6.00 Build 0)  -->
<svg version="1.1" id="Layer_1" xmlns="http://www.w3.org/2000/svg" xmlns:xlink="http://www.w3.org/1999/xlink" x="0px" y="0px"
	 viewBox="0 0 150 150" style="enable-background:new 0 0 150 150;" xml:space="preserve">
<style type="text/css">
	.st0{fill:none;stroke:#D7C36B;stroke-width:3;stroke-miterlimit:10;}
	.st1{fill:#D7C36B;}
</style>
<g id="XMLID_220_">
	<g id="XMLID_458_">
		<path id="XMLID_1210_" class="st0" d="M124.1,94.3v-37c0-3.6-2.9-6.5-6.5-6.5c-3.6,0-6.5,2.9-6.5,6.5v37
			c-4.1,2.3-6.9,6.7-6.9,11.7c0,7.4,6,13.4,13.4,13.4c7.4,0,13.4-6,13.4-13.4C131,101,128.3,96.6,124.1,94.3z"/>
		<rect id="XMLID_278_" x="115.7" y="75.5" class="st1" width="3.9" height="30.8"/>
		<circle id="XMLID_279_" class="st1" cx="117.6" cy="105.9" r="5.5"/>
	</g>
	<g id="XMLID_366_">
		<rect id="XMLID_397_" x="55.7" y="120.9" class="st1" width="36.1" height="3.9"/>
		<rect id="XMLID_396_" x="37.5" y="120.9" class="st1" width="12.7" height="3.9"/>
		<rect id="XMLID_395_" x="19" y="120.9" class="st1" width="12.7" height="3.9"/>
		<rect id="XMLID_392_" x="76.3" y="83.2" class="st1" width="15.5" height="3.9"/>
		<rect id="XMLID_384_" x="87.9" y="25.2" class="st1" width="3.9" height="95.7"/>
		<path id="XMLID_378_" class="st1" d="M73.1,46v3.9c8.2,0,14.8,6.6,14.8,14.8h3.9C91.8,54.3,83.4,46,73.1,46z"/>
		<path id="XMLID_377_" class="st1" d="M57.6,46v3.9c8.2,0,14.8,6.6,14.8,14.8h3.9C76.3,54.3,67.9,46,57.6,46z"/>
		<g id="XMLID_367_">
			
				<rect id="XMLID_376_" x="60" y="63.3" transform="matrix(0.7111 0.7031 -0.7031 0.7111 65.4743 -23.3346)" class="st1" width="2.2" height="9.4"/>
			
				<rect id="XMLID_369_" x="58.9" y="56.6" transform="matrix(0.7111 0.7031 -0.7031 0.7111 60.4355 -24.5226)" class="st1" width="2.2" height="9.4"/>
			
				<rect id="XMLID_368_" x="51.1" y="57.2" transform="matrix(0.7111 0.7031 -0.7031 0.7111 58.6069 -18.8432)" class="st1" width="2.2" height="9.4"/>
		</g>
	</g>
</g>
</svg>
