<?xml version="1.0" encoding="utf-8"?>
<!-- Generator: Adobe Illustrator 19.0.0, SVG Export Plug-In . SVG Version: 6.00 Build 0)  -->
<svg version="1.1" id="Layer_1" xmlns="http://www.w3.org/2000/svg" xmlns:xlink="http://www.w3.org/1999/xlink" x="0px" y="0px"
	 viewBox="0 0 150 150" style="enable-background:new 0 0 150 150;" xml:space="preserve">
<style type="text/css">
	.st0{fill:#D7C36B;}
</style>
<g id="XMLID_117_">
	<rect id="XMLID_169_" x="75.3" y="120.9" class="st0" width="36.1" height="3.9"/>
	<rect id="XMLID_248_" x="57.1" y="120.9" class="st0" width="12.7" height="3.9"/>
	<rect id="XMLID_250_" x="38.6" y="120.9" class="st0" width="12.7" height="3.9"/>
	<rect id="XMLID_115_" x="95.9" y="83.2" class="st0" width="15.5" height="3.9"/>
	<rect id="XMLID_170_" x="107.5" y="25.2" class="st0" width="3.9" height="95.7"/>
	<path id="XMLID_166_" class="st0" d="M92.7,46v3.9c8.2,0,14.8,6.6,14.8,14.8h3.9C111.4,54.3,103,46,92.7,46z"/>
	<path id="XMLID_165_" class="st0" d="M77.2,46v3.9c8.2,0,14.8,6.6,14.8,14.8h3.9C95.9,54.3,87.5,46,77.2,46z"/>
	<g id="XMLID_109_">
		
			<rect id="XMLID_1007_" x="79.6" y="63.3" transform="matrix(0.7111 0.7031 -0.7031 0.7111 71.1477 -37.1415)" class="st0" width="2.2" height="9.4"/>
		
			<rect id="XMLID_1006_" x="78.6" y="56.6" transform="matrix(0.7111 0.7031 -0.7031 0.7111 66.1088 -38.3295)" class="st0" width="2.2" height="9.4"/>
		
			<rect id="XMLID_1005_" x="70.8" y="57.2" transform="matrix(0.7111 0.7031 -0.7031 0.7111 64.2803 -32.6501)" class="st0" width="2.2" height="9.4"/>
	</g>
</g>
</svg>
