<?xml version="1.0" encoding="utf-8"?>
<!-- Generator: Adobe Illustrator 19.0.0, SVG Export Plug-In . SVG Version: 6.00 Build 0)  -->
<svg version="1.1" id="Layer_1" xmlns="http://www.w3.org/2000/svg" xmlns:xlink="http://www.w3.org/1999/xlink" x="0px" y="0px"
	 viewBox="0 0 150 150" style="enable-background:new 0 0 150 150;" xml:space="preserve">
<style type="text/css">
	.st0{fill:#D7C36B;}
</style>
<g id="XMLID_1050_">
	<path id="XMLID_80_" class="st0" d="M110.9,80H107c0,8.2-6.6,14.8-14.8,14.8v3.9C102.5,98.7,110.9,90.4,110.9,80z"/>
	<path id="XMLID_234_" class="st0" d="M57.8,98.7v-3.9C49.6,94.9,43,88.2,43,80h-3.9C39.1,90.4,47.5,98.7,57.8,98.7z"/>
	<rect id="XMLID_413_" x="39.1" y="76.3" class="st0" width="71.8" height="3.9"/>
	<rect id="XMLID_403_" x="39.1" y="94.9" class="st0" width="71.8" height="3.9"/>
	<g id="XMLID_489_">
		<rect id="XMLID_493_" x="73.1" y="54.8" class="st0" width="3.9" height="23.9"/>
		<rect id="XMLID_492_" x="64.6" y="51.3" class="st0" width="12.4" height="3.9"/>
		<path id="XMLID_490_" class="st0" d="M58.1,57v3.9c8.2,0,14.8,6.6,14.8,14.8h3.9C76.8,65.3,68.4,57,58.1,57z"/>
	</g>
</g>
</svg>
