<?xml version="1.0" encoding="utf-8"?>
<!-- Generator: Adobe Illustrator 19.0.0, SVG Export Plug-In . SVG Version: 6.00 Build 0)  -->
<svg version="1.1" xmlns="http://www.w3.org/2000/svg" xmlns:xlink="http://www.w3.org/1999/xlink" x="0px" y="0px"
	 viewBox="0 0 150 150" style="enable-background:new 0 0 150 150;" xml:space="preserve">
<style type="text/css">
	.st0{display:none;}
	.st1{fill:#D7C36B;}
</style>
<g id="ruler" class="st0">
</g>
<g id="Layer_2">
	<g id="XMLID_169_">
		<rect id="XMLID_163_" x="61.5" y="119.4" class="st1" width="39.2" height="3.9"/>
		<rect id="XMLID_137_" x="79" y="63.1" class="st1" width="3.9" height="56.3"/>
		<g id="XMLID_46_">
			<rect id="XMLID_47_" x="105.3" y="74" class="st1" width="3.3" height="16"/>
			<rect id="XMLID_83_" x="98.9" y="80.4" class="st1" width="16" height="3.3"/>
		</g>
		<g id="XMLID_213_">
			<rect id="XMLID_216_" x="44.8" y="79.8" class="st1" width="2.2" height="10.2"/>
			<rect id="XMLID_215_" x="40.5" y="83.9" class="st1" width="10.9" height="2.1"/>
		</g>
		<g id="XMLID_229_">
			<rect id="XMLID_231_" x="75.6" y="26.8" class="st1" width="2.2" height="10.2"/>
			<rect id="XMLID_230_" x="71.3" y="30.8" class="st1" width="10.9" height="2.1"/>
		</g>
		<g id="XMLID_217_">
			<rect id="XMLID_220_" x="96" y="49" class="st1" width="2.1" height="9.7"/>
			<rect id="XMLID_219_" x="91.9" y="52.9" class="st1" width="10.3" height="2"/>
		</g>
		<g id="XMLID_226_">
			<rect id="XMLID_228_" x="93.7" y="101.4" class="st1" width="2.1" height="9.7"/>
			<rect id="XMLID_227_" x="89.7" y="105.3" class="st1" width="10.3" height="2"/>
		</g>
		<g id="XMLID_221_">
			<rect id="XMLID_225_" x="62.3" y="92.7" class="st1" width="3.2" height="14.6"/>
			<rect id="XMLID_222_" x="56.3" y="98.5" class="st1" width="15.3" height="3"/>
		</g>
		<path id="XMLID_49_" class="st1" d="M64.2,44.4v3.9c8.2,0,14.8,6.6,14.8,14.8h3.9C82.9,52.8,74.6,44.4,64.2,44.4z"/>
		<path id="XMLID_48_" class="st1" d="M48.7,44.4v3.9c8.2,0,14.8,6.6,14.8,14.8h3.9C67.4,52.8,59.1,44.4,48.7,44.4z"/>
		
			<rect id="XMLID_4_" x="49.6" y="63.8" transform="matrix(0.7111 0.7031 -0.7031 0.7111 63.5723 -15.7305)" class="st1" width="2.7" height="11.5"/>
		
			<rect id="XMLID_14_" x="48.3" y="55.6" transform="matrix(0.7111 0.7031 -0.7031 0.7111 57.4343 -17.1777)" class="st1" width="2.7" height="11.5"/>
		
			<rect id="XMLID_3_" x="38.7" y="56.3" transform="matrix(0.7111 0.7031 -0.7031 0.7111 55.2069 -10.2595)" class="st1" width="2.7" height="11.5"/>
	</g>
</g>
</svg>
