<?xml version="1.0" encoding="utf-8"?>
<!-- Generator: Adobe Illustrator 19.0.0, SVG Export Plug-In . SVG Version: 6.00 Build 0)  -->
<svg version="1.1" xmlns="http://www.w3.org/2000/svg" xmlns:xlink="http://www.w3.org/1999/xlink" x="0px" y="0px"
	 viewBox="0 0 150 150" style="enable-background:new 0 0 150 150;" xml:space="preserve">
<style type="text/css">
	.st0{display:none;}
	.st1{fill:#FFFFFF;}
</style>
<g id="ruler" class="st0">
</g>
<g id="Layer_2">
	<g id="XMLID_729_">
		<path id="XMLID_734_" class="st1" d="M50.8,25.6c16.1,0,32.2,0,48.2,0c0.3,0.1,0.6,0.1,0.9,0.2c2.7,0.3,5.3,0.9,7.8,2.1
			c10.6,5,16.3,13.4,16.5,25.2c0.2,14.7,0.1,29.3,0,44c0,5.7-1.5,11-4.8,15.6c-5.6,7.9-13.3,11.8-23,11.8c-14.4,0-28.8,0-43.2,0
			c-1.9,0-3.8-0.1-5.6-0.5c-11.2-2.5-18.3-9.3-21.4-20.3c-0.4-1.4-0.5-3-0.8-4.4c0-16.1,0-32.2,0-48.2c0.2-1,0.3-2,0.5-3
			c2.5-11.2,9.3-18.4,20.4-21.4C47.9,26,49.4,25.8,50.8,25.6z M115.6,75.1c0-7.2,0-14.3,0-21.5c0-2.3-0.2-4.5-1-6.6
			c-2.8-7.8-9.5-12.6-18-12.6c-14.4,0-28.8,0-43.2,0c-2.2,0-4.4,0.3-6.4,1c-7.9,2.7-12.6,9.5-12.6,18c0,14.4,0,28.8,0,43.1
			c0,2.2,0.3,4.4,1,6.4c2.6,7.9,9.5,12.6,17.9,12.6c14.5,0,28.9,0,43.4,0c6.4,0,11.6-2.6,15.5-7.8c2.5-3.4,3.5-7.2,3.5-11.3
			C115.6,89.4,115.6,82.2,115.6,75.1z"/>
		<path id="XMLID_731_" class="st1" d="M75,100.5c-14,0-25.5-11.5-25.5-25.5c0-14,11.6-25.5,25.5-25.4C89,49.6,100.4,61,100.4,75
			C100.5,89,88.9,100.5,75,100.5z M91.6,75c0.1-9.2-7.4-16.7-16.6-16.7c-9.2-0.1-16.7,7.4-16.7,16.6c-0.1,9.2,7.4,16.7,16.6,16.7
			C84.1,91.7,91.6,84.3,91.6,75z"/>
		<path id="XMLID_730_" class="st1" d="M101.5,42.1c3.5,0,6.5,2.9,6.4,6.4c0,3.5-2.9,6.4-6.4,6.4c-3.5,0-6.5-3-6.4-6.4
			C95.1,45,98,42.1,101.5,42.1z"/>
	</g>
</g>
</svg>
