<?xml version="1.0" encoding="utf-8"?>
<!-- Generator: Adobe Illustrator 19.0.0, SVG Export Plug-In . SVG Version: 6.00 Build 0)  -->
<svg version="1.1" id="Layer_1" xmlns="http://www.w3.org/2000/svg" xmlns:xlink="http://www.w3.org/1999/xlink" x="0px" y="0px"
	 viewBox="0 0 180 150" style="enable-background:new 0 0 180 150;" xml:space="preserve">
<style type="text/css">
	.st0{fill:#D7C36B;}
	.st1{fill:none;stroke:#D7C36B;stroke-width:3;stroke-miterlimit:10;}
</style>
<g id="XMLID_847_">
	<g id="XMLID_17_">
		<g id="XMLID_109_">
			
				<rect id="XMLID_170_" x="163.1" y="54.2" transform="matrix(0.7071 -0.7071 0.7071 0.7071 -1.3942 137.2682)" class="st0" width="3.9" height="32.2"/>
			
				<rect id="XMLID_377_" x="163.1" y="74.3" transform="matrix(-0.7071 -0.7071 0.7071 -0.7071 217.7653 270.9595)" class="st0" width="3.9" height="32.2"/>
		</g>
		<g id="XMLID_384_">
			
				<rect id="XMLID_395_" x="13.1" y="74.3" transform="matrix(-0.7071 0.7071 -0.7071 -0.7071 89.5139 143.6802)" class="st0" width="3.9" height="32.2"/>
			
				<rect id="XMLID_392_" x="13.1" y="54.2" transform="matrix(0.7071 0.7071 -0.7071 0.7071 54.115 9.9889)" class="st0" width="3.9" height="32.2"/>
		</g>
	</g>
	<polygon id="XMLID_2_" class="st1" points="121.2,45.5 46.5,53.1 46.5,82 121.2,89.7 	"/>
	<polyline id="XMLID_5_" class="st1" points="127.5,54.1 127.5,97.2 53.5,88.6 	"/>
	<polyline id="XMLID_4_" class="st1" points="133.5,61.4 133.5,104.5 59.5,95.9 	"/>
</g>
</svg>
