<?xml version="1.0" encoding="utf-8"?>
<!-- Generator: Adobe Illustrator 19.0.0, SVG Export Plug-In . SVG Version: 6.00 Build 0)  -->
<svg version="1.1" id="Layer_1" xmlns="http://www.w3.org/2000/svg" xmlns:xlink="http://www.w3.org/1999/xlink" x="0px" y="0px"
	 viewBox="0 0 180 150" style="enable-background:new 0 0 180 150;" xml:space="preserve">
<style type="text/css">
	.st0{fill:#D7C36B;}
</style>
<g id="XMLID_849_">
	<rect id="XMLID_904_" x="117.8" y="32.9" class="st0" width="3.9" height="84.3"/>
	<g id="XMLID_848_">
		<rect id="XMLID_891_" x="100.4" y="60.8" class="st0" width="3.9" height="56.3"/>
		<rect id="XMLID_890_" x="82.9" y="117.1" class="st0" width="47.6" height="3.9"/>
		<rect id="XMLID_236_" x="61.1" y="29" class="st0" width="60.5" height="3.9"/>
		<rect id="XMLID_889_" x="64.9" y="117.1" class="st0" width="14.5" height="3.9"/>
		<rect id="XMLID_888_" x="52.7" y="117.1" class="st0" width="9.2" height="3.9"/>
		<path id="XMLID_887_" class="st0" d="M85.6,42.2v3.9c8.2,0,14.8,6.6,14.8,14.8h3.9C104.3,50.6,95.9,42.2,85.6,42.2z"/>
		<g id="XMLID_278_">
			<path id="XMLID_886_" class="st0" d="M70.1,42.2v3.9c8.2,0,14.8,6.6,14.8,14.8h3.9C88.8,50.6,80.4,42.2,70.1,42.2z"/>
			
				<rect id="XMLID_885_" x="71.1" y="61.8" transform="matrix(0.7111 0.7031 -0.7031 0.7111 68.3992 -31.4786)" class="st0" width="2.7" height="11.5"/>
			
				<rect id="XMLID_884_" x="69.8" y="53.6" transform="matrix(0.7111 0.7031 -0.7031 0.7111 62.2613 -32.9257)" class="st0" width="2.7" height="11.5"/>
			
				<rect id="XMLID_883_" x="60.3" y="54.3" transform="matrix(0.7111 0.7031 -0.7031 0.7111 60.0339 -26.0075)" class="st0" width="2.7" height="11.5"/>
		</g>
		<g id="XMLID_465_">
			<g id="XMLID_481_">
				
					<rect id="XMLID_828_" x="163.1" y="52.5" transform="matrix(0.7071 -0.7071 0.7071 0.7071 -0.2001 136.7735)" class="st0" width="3.9" height="32.2"/>
				
					<rect id="XMLID_827_" x="163.1" y="72.6" transform="matrix(-0.7071 -0.7071 0.7071 -0.7071 218.9595 268.0765)" class="st0" width="3.9" height="32.2"/>
			</g>
			<g id="XMLID_468_">
				
					<rect id="XMLID_478_" x="13.1" y="72.6" transform="matrix(-0.7071 0.7071 -0.7071 -0.7071 88.3197 140.7973)" class="st0" width="3.9" height="32.2"/>
				
					<rect id="XMLID_473_" x="13.1" y="52.5" transform="matrix(0.7071 0.7071 -0.7071 0.7071 52.9209 9.4943)" class="st0" width="3.9" height="32.2"/>
			</g>
		</g>
	</g>
</g>
</svg>
