<?xml version="1.0" encoding="utf-8"?>
<!-- Generator: Adobe Illustrator 19.0.0, SVG Export Plug-In . SVG Version: 6.00 Build 0)  -->
<svg version="1.1" id="Layer_1" xmlns="http://www.w3.org/2000/svg" xmlns:xlink="http://www.w3.org/1999/xlink" x="0px" y="0px"
	 viewBox="0 0 150 150" style="enable-background:new 0 0 150 150;" xml:space="preserve">
<style type="text/css">
	.st0{fill:#D7C36B;}
	.st1{fill:none;stroke:#D7C36B;stroke-width:3;stroke-miterlimit:10;}
</style>
<g id="XMLID_850_">
	<g id="XMLID_366_">
		<path id="XMLID_376_" class="st0" d="M38.6,35.8v3.9c8.2,0,14.8,6.6,14.8,14.8h3.9C57.3,44.2,49,35.8,38.6,35.8z"/>
		
			<rect id="XMLID_369_" x="39.7" y="55.4" transform="matrix(0.7111 0.7031 -0.7031 0.7111 54.8123 -11.1924)" class="st0" width="2.7" height="11.5"/>
		
			<rect id="XMLID_368_" x="38.4" y="47.2" transform="matrix(0.7111 0.7031 -0.7031 0.7111 48.6744 -12.6396)" class="st0" width="2.7" height="11.5"/>
		
			<rect id="XMLID_367_" x="28.8" y="47.9" transform="matrix(0.7111 0.7031 -0.7031 0.7111 46.447 -5.7214)" class="st0" width="2.7" height="11.5"/>
	</g>
	<g id="XMLID_203_">
		<rect id="XMLID_400_" x="68.9" y="54.2" class="st0" width="3.9" height="56.3"/>
		<rect id="XMLID_397_" x="51.4" y="110.5" class="st0" width="39.2" height="3.9"/>
		<path id="XMLID_396_" class="st0" d="M54.1,35.6v3.9c8.2,0,14.8,6.6,14.8,14.8h3.9C72.8,44,64.5,35.6,54.1,35.6z"/>
		<path id="XMLID_378_" class="st0" d="M38.6,35.6v3.9c8.2,0,14.8,6.6,14.8,14.8h3.9C57.3,44,49,35.6,38.6,35.6z"/>
		<rect id="XMLID_250_" x="110.4" y="44.9" class="st1" width="14.4" height="65.6"/>
		<path id="XMLID_243_" class="st1" d="M92,54.7c10.9-8,13.8,13.2,25.6-1.8"/>
		<path id="XMLID_242_" class="st1" d="M92,69.4c10.9-8,13.8,13.2,25.6-1.8"/>
		<path id="XMLID_241_" class="st1" d="M92,84.2c10.9-8,13.8,13.2,25.6-1.8"/>
		<path id="XMLID_240_" class="st1" d="M92,98.9c10.9-8,13.8,13.2,25.6-1.8"/>
	</g>
</g>
</svg>
