<?xml version="1.0" encoding="utf-8"?>
<!-- Generator: Adobe Illustrator 19.0.0, SVG Export Plug-In . SVG Version: 6.00 Build 0)  -->
<svg version="1.1" xmlns="http://www.w3.org/2000/svg" xmlns:xlink="http://www.w3.org/1999/xlink" x="0px" y="0px"
	 viewBox="0 0 150 150" style="enable-background:new 0 0 150 150;" xml:space="preserve">
<style type="text/css">
	.st0{display:none;}
	.st1{fill:#FFFFFF;}
</style>
<g id="ruler" class="st0">
</g>
<g id="Layer_2">
	<path id="XMLID_725_" class="st1" d="M114.4,50.2c0,0.1,0,0.2,0,0.4c-1.2,2.7-2.5,5.4-5.2,6.8c-1.5,0.8-1.8,1.8-1.8,3.3
		c-0.1,10.3-3.1,19.8-9.2,28.2c-7.1,9.7-16.5,16-28.6,17.5c-7.2,0.9-14.5,0.3-21.6-1c-4-0.7-7.9-1.7-11.3-4c-0.4-0.3-1.1-0.5-1-1.1
		c0.1-0.7,0.9-0.4,1.3-0.5c4.2-0.3,8.4-0.8,12.3-2.3c2.8-1.1,5.4-2.4,7.8-4.4C46,91.5,40.8,88,39.8,81.6c4,2.2,8.2,2,12.7,1.5
		c-7.8-3.4-13.3-8.5-15.6-16.7c3.1,2.5,6.7,2.9,10.8,3c-3.8-3.1-6.6-6.3-8.1-10.6c-1.4-4.4-1-8.6,1.1-12.7c0.6,0.1,0.9,0.5,1.2,0.8
		c8.4,8.9,19,13.2,30.8,15.3c1.1,0.2,1.3-0.1,1.3-1.1c0-1.5,0.1-3,0.4-4.5c1.6-8.4,11.4-17.6,23-11.5c3.5,1.9,6.5,1.8,9.8,0.1
		c1.2-0.6,2.6-1.1,3.9-1.6c0.5-0.2,0.9-0.6,1.6-0.3c-1.2,3.8-3.9,6.5-6.9,9.2c1.2,0.1,2-0.4,2.8-0.7
		C110.6,51.4,112.3,50.3,114.4,50.2z"/>
</g>
</svg>
