<?xml version="1.0" encoding="utf-8"?>
<!-- Generator: Adobe Illustrator 19.0.0, SVG Export Plug-In . SVG Version: 6.00 Build 0)  -->
<svg version="1.1" id="Layer_1" xmlns="http://www.w3.org/2000/svg" xmlns:xlink="http://www.w3.org/1999/xlink" x="0px" y="0px"
	 viewBox="0 0 150 150" style="enable-background:new 0 0 150 150;" xml:space="preserve">
<style type="text/css">
	.st0{fill:#D7C36B;}
</style>
<g id="XMLID_369_">
	<rect id="XMLID_497_" x="109.8" y="83.9" class="st0" width="3.9" height="25.7"/>
	<rect id="XMLID_154_" x="68.5" y="56.7" class="st0" width="3.9" height="16.3"/>
	<g id="XMLID_180_">
		<rect id="XMLID_178_" x="93" y="40.4" class="st0" width="3.9" height="16.3"/>
		<rect id="XMLID_145_" x="86.8" y="46.6" class="st0" width="16.3" height="3.9"/>
	</g>
	<g id="XMLID_376_">
		<rect id="XMLID_407_" x="19.1" y="61" class="st0" width="3.9" height="16.3"/>
		<rect id="XMLID_401_" x="12.9" y="67.2" class="st0" width="16.3" height="3.9"/>
	</g>
	<g id="XMLID_408_">
		<rect id="XMLID_412_" x="127.1" y="79.6" class="st0" width="3.9" height="16.3"/>
		<rect id="XMLID_409_" x="120.9" y="85.9" class="st0" width="16.3" height="3.9"/>
	</g>
	<rect id="XMLID_278_" x="27.2" y="83.9" class="st0" width="3.9" height="25.7"/>
	<rect id="XMLID_495_" x="27.2" y="105.7" class="st0" width="86.5" height="3.9"/>
	<rect id="XMLID_171_" x="27.2" y="83.9" class="st0" width="86.5" height="3.9"/>
	<rect id="XMLID_279_" x="42.2" y="69.1" class="st0" width="56.5" height="3.9"/>
	<path id="XMLID_482_" class="st0" d="M100.1,69.1h-3.9c0,8.2-6.6,14.8-14.8,14.8v3.9C91.7,87.8,100.1,79.4,100.1,69.1z"/>
	<path id="XMLID_168_" class="st0" d="M53.7,46.9v3.9c8.2,0,14.8,6.6,14.8,14.8h3.9C72.4,55.3,64,46.9,53.7,46.9z"/>
	<path id="XMLID_480_" class="st0" d="M59.5,87.8v-3.9c-8.2,0-14.8-6.6-14.8-14.8h-3.9C40.8,79.4,49.2,87.8,59.5,87.8z"/>
</g>
</svg>
