<?xml version="1.0" encoding="utf-8"?>
<!-- Generator: Adobe Illustrator 19.0.0, SVG Export Plug-In . SVG Version: 6.00 Build 0)  -->
<svg version="1.1" id="Layer_1" xmlns="http://www.w3.org/2000/svg" xmlns:xlink="http://www.w3.org/1999/xlink" x="0px" y="0px"
	 viewBox="0 0 180 150" style="enable-background:new 0 0 180 150;" xml:space="preserve">
<style type="text/css">
	.st0{fill:#D7C36B;}
	.st1{fill:none;stroke:#D7C36B;stroke-width:3;stroke-miterlimit:10;}
</style>
<g id="XMLID_172_">
	<g id="XMLID_508_">
		<g id="XMLID_726_">
			
				<rect id="XMLID_730_" x="163.1" y="50.5" transform="matrix(0.7071 -0.7071 0.7071 0.7071 1.2421 136.1762)" class="st0" width="3.9" height="32.2"/>
			
				<rect id="XMLID_729_" x="163.1" y="70.5" transform="matrix(-0.7071 -0.7071 0.7071 -0.7071 220.4016 264.5949)" class="st0" width="3.9" height="32.2"/>
		</g>
		<g id="XMLID_509_">
			
				<rect id="XMLID_723_" x="13.1" y="70.5" transform="matrix(-0.7071 0.7071 -0.7071 -0.7071 86.8776 137.3157)" class="st0" width="3.9" height="32.2"/>
			
				<rect id="XMLID_510_" x="13.1" y="50.5" transform="matrix(0.7071 0.7071 -0.7071 0.7071 51.4787 8.8969)" class="st0" width="3.9" height="32.2"/>
		</g>
	</g>
	<polygon id="XMLID_506_" class="st1" points="121.2,41.7 46.5,49.4 46.5,78.3 121.2,86 	"/>
	<polyline id="XMLID_502_" class="st1" points="127.5,50.3 127.5,93.5 53.5,84.8 	"/>
	<polyline id="XMLID_177_" class="st1" points="133.5,57.7 133.5,100.8 59.5,92.2 	"/>
</g>
</svg>
