<?xml version="1.0" encoding="utf-8"?>
<!-- Generator: Adobe Illustrator 19.0.0, SVG Export Plug-In . SVG Version: 6.00 Build 0)  -->
<svg version="1.1" xmlns="http://www.w3.org/2000/svg" xmlns:xlink="http://www.w3.org/1999/xlink" x="0px" y="0px"
	 viewBox="0 0 150 150" style="enable-background:new 0 0 150 150;" xml:space="preserve">
<style type="text/css">
	.st0{display:none;}
	.st1{fill:#FFFFFF;}
</style>
<g id="ruler" class="st0">
</g>
<g id="Layer_2">
	<g id="XMLID_741_">
		<path id="XMLID_743_" class="st1" d="M75,34.8c4.4,0.2,8.8,0.2,13.2,0.5c4,0.2,8,0.6,12,1c3.8,0.4,7.5,0.9,11.2,1.4
			c3.4,0.5,6.2,2.2,8.5,4.7c2.2,2.4,3.5,5.3,4.1,8.5c0.6,3.5,1.1,7,1.4,10.5c0.5,5.8,0.7,11.7,0.5,17.6c-0.1,3.5-0.3,6.9-0.6,10.4
			c-0.3,3.7-0.8,7.3-1.5,11c-1.3,6.2-6.4,11.1-12.7,12.1c-3.4,0.5-6.8,0.9-10.2,1.3c-2.8,0.3-5.6,0.6-8.4,0.8
			c-4.1,0.3-8.3,0.5-12.4,0.6c-4.5,0.1-8.9,0-13.4-0.1c-2.9-0.1-5.8-0.3-8.6-0.5c-2.9-0.2-5.7-0.5-8.6-0.8c-2.9-0.3-5.7-0.7-8.6-1.1
			c-1.4-0.2-2.8-0.4-4.1-0.8c-4-1.1-7-3.6-9.1-7.2c-1.2-2-1.8-4.1-2.1-6.3c-0.4-3.2-0.9-6.5-1.2-9.7c-0.5-4.7-0.6-9.4-0.6-14.1
			c0-4.1,0.2-8.2,0.5-12.3c0.4-4.2,0.8-8.4,1.7-12.5c1.2-6,6.1-10.8,12.1-12c2.2-0.4,4.5-0.7,6.8-1c2.2-0.3,4.3-0.5,6.5-0.7
			c2.5-0.2,5-0.5,7.5-0.6c3.3-0.2,6.6-0.4,9.8-0.5c2.1-0.1,4.2,0,6.2,0C75,35,75,34.9,75,34.8z M75,42.1c0,0,0,0.1,0,0.1
			c-5.3,0-10.5,0.2-15.7,0.6c-2.9,0.2-5.9,0.4-8.8,0.8c-3.4,0.4-6.8,0.8-10.2,1.3c-3.4,0.5-6.1,2.8-6.9,6.1
			c-0.3,1.4-0.5,2.8-0.7,4.3c-0.7,4.8-1.1,9.7-1.3,14.5c-0.2,6.1-0.1,12.2,0.5,18.2c0.3,3.5,0.8,7.1,1.4,10.6
			c0.6,3.4,3.3,6.1,6.7,6.6c3.2,0.5,6.4,0.9,9.7,1.2c3.4,0.4,6.8,0.7,10.2,0.9c4.1,0.3,8.1,0.5,12.2,0.5c4.3,0,8.5-0.1,12.8-0.2
			c1.9,0,3.9-0.2,5.8-0.3c2.1-0.2,4.3-0.3,6.4-0.5c2.2-0.2,4.4-0.4,6.5-0.7c2.1-0.2,4.1-0.6,6.2-0.8c3.6-0.4,6.5-3.1,7.2-6.7
			c1.1-6.1,1.7-12.2,1.9-18.3c0.2-4.3,0.1-8.6-0.1-12.9c-0.3-5.3-0.8-10.5-1.8-15.8c-0.6-3.4-3.2-6.2-6.7-6.7
			c-3.3-0.5-6.6-0.9-9.9-1.3c-3.9-0.4-7.8-0.7-11.7-1C84,42.4,79.5,42.3,75,42.1z"/>
		<path id="XMLID_742_" class="st1" d="M60.4,93.3c0-12.2,0-24.3,0-36.5C72.6,62.9,84.7,69,96.9,75.1C84.7,81.2,72.6,87.2,60.4,93.3
			z"/>
	</g>
</g>
</svg>
